<svg xmlns="http://www.w3.org/2000/svg" width="228.052" height="228.654" viewBox="0 0 228.052 228.654">
  <g id="Group_87" data-name="Group 87" transform="translate(-958.389 -5353.965)">
    <g id="Group_86" data-name="Group 86">
      <path id="Path_139" data-name="Path 139" d="M1158.107,5576.965c0-8.253-37.826-14.943-84.487-14.943s-84.487,6.69-84.487,14.943c0,2,2.229,3.91,6.263,5.654h156.448C1155.878,5580.875,1158.107,5578.967,1158.107,5576.965Z" fill="#3f3d56" opacity="0.5" style="mix-blend-mode: multiply;isolation: isolate"/>
    </g>
    <path id="Path_140" data-name="Path 140" d="M1003.209,5436.212c0-21.77,31.922-39.418,71.3-39.418s71.3,17.648,71.3,39.418" fill="none" stroke="#3f3d56" stroke-width="0.575"/>
    <path id="Path_141" data-name="Path 141" d="M1096.928,5411.971h-58.006q-17.21-29,0-58.006h58.006Q1072.865,5382.967,1096.928,5411.971Z" fill="#e6e6e6"/>
    <rect id="Rectangle_33" data-name="Rectangle 33" width="32.686" height="4.143" transform="translate(1047.208 5360.871)" fill="#6c63ff"/>
    <rect id="Rectangle_34" data-name="Rectangle 34" width="43.274" height="1.381" transform="translate(1036.62 5374.451)" fill="#fff"/>
    <rect id="Rectangle_35" data-name="Rectangle 35" width="43.274" height="1.381" transform="translate(1036.62 5381.587)" fill="#fff"/>
    <rect id="Rectangle_36" data-name="Rectangle 36" width="43.274" height="1.381" transform="translate(1036.62 5388.723)" fill="#fff"/>
    <path id="Path_142" data-name="Path 142" d="M1120.087,5540.371c0,18.4,11.541,33.283,25.8,33.283" fill="#3f3d56"/>
    <path id="Path_143" data-name="Path 143" d="M1145.89,5573.654c0-18.6,12.879-33.657,28.8-33.657" fill="#6c63ff"/>
    <path id="Path_144" data-name="Path 144" d="M1129.436,5542.039c0,17.475,7.359,31.615,16.454,31.615" fill="#6c63ff"/>
    <path id="Path_145" data-name="Path 145" d="M1145.89,5573.654c0-23.771,14.886-43.006,33.283-43.006" fill="#3f3d56"/>
    <path id="Path_146" data-name="Path 146" d="M1140.462,5573.889s3.659-.113,4.762-.9,5.629-1.723,5.9-.464,5.5,6.264,1.368,6.3-9.6-.643-10.7-1.314S1140.462,5573.889,1140.462,5573.889Z" fill="#a8a8a8"/>
    <path id="Path_147" data-name="Path 147" d="M1152.568,5578.386c-4.131.033-9.6-.644-10.7-1.314-.838-.511-1.172-2.343-1.284-3.188l-.122.005s.231,2.951,1.332,3.621,6.569,1.348,10.7,1.314c1.193-.009,1.6-.434,1.582-1.062C1153.911,5578.142,1153.456,5578.379,1152.568,5578.386Z" opacity="0.2" style="mix-blend-mode: normal;isolation: isolate"/>
    <path id="Path_148" data-name="Path 148" d="M1061.22,5399.278a.8.8,0,0,0,.938-.387c.754-1.188-.635-2.72-.334-4.1.241-1.1,1.492-1.755,1.748-2.853.249-1.067-.517-2.27,0-3.235a2.15,2.15,0,0,1,2.267-.823c.847.133,1.652.506,2.509.558a12.34,12.34,0,0,0,3.346-.682,2.99,2.99,0,0,1,3.134.785c.843,1.2-.012,2.876.281,4.315.233,1.142,1.19,2.088,1.21,3.254.008.414-1.082.081-1.024.491s-.457.049-.045,0a.814.814,0,0,0,.619-.736c.049-.342.692-.456.684-.8-.017-.809,1.445-.264,1.686-1.036a7.831,7.831,0,0,0-.32-5.465,10.94,10.94,0,0,1-.933-2.223c-.215-1.073.123-2.224-.231-3.259-.478-1.4-2.058-2.106-3.525-2.251s-2.959.115-4.417-.1a19.178,19.178,0,0,0-3.891-.675,6.462,6.462,0,0,0-4.054,2.261,34.108,34.108,0,0,1-3.272,3.441,6.393,6.393,0,0,0-1.049.9,3.522,3.522,0,0,0-.522,2.858c.176.984.56,1.923.722,2.91.153.927.106,1.874.171,2.811a4.941,4.941,0,0,0,.825,2.654,2.5,2.5,0,0,0,1.949,1.019c.264.006.487-.232.753-.17C1060.779,5398.827,1060.924,5399.143,1061.22,5399.278Z" fill="#2f2e41"/>
    <path id="Path_149" data-name="Path 149" d="M1049.931,5467.393l.978,6.01,1.957-2.656-1.118-4.053Z" fill="#a0616a"/>
    <path id="Path_150" data-name="Path 150" d="M1051.188,5421.972l-1.54,4.059s-1.534,20.678-1.534,22.215,1.118,21.243,1.537,22.081c0,0,1.817-2.655,4.193-2.236s1.4-6.987,1.4-6.987l2.236-18.309-.419-9.223Z" fill="#575a89"/>
    <path id="Path_151" data-name="Path 151" d="M1051.188,5421.972l-1.54,4.059s-1.534,20.678-1.534,22.215,1.118,21.243,1.537,22.081c0,0,1.817-2.655,4.193-2.236s1.4-6.987,1.4-6.987l2.236-18.309-.419-9.223Z" opacity="0.1" style="mix-blend-mode: normal;isolation: isolate"/>
    <path id="Path_152" data-name="Path 152" d="M1060.692,5399.611s4.612,11.739,1.956,13.975,14.815-3.773,14.815-3.773l-.42-1.537s-5.73-2.236-2.935-8.665S1060.692,5399.611,1060.692,5399.611Z" fill="#a0616a"/>
    <path id="Path_153" data-name="Path 153" d="M1060.692,5399.611s4.612,11.739,1.956,13.975,14.815-3.773,14.815-3.773l-.42-1.537s-5.73-2.236-2.935-8.665S1060.692,5399.611,1060.692,5399.611Z" opacity="0.1" style="mix-blend-mode: normal;isolation: isolate"/>
    <path id="Path_154" data-name="Path 154" d="M1053.424,5556.417a3.084,3.084,0,0,0-3.074.839,62.174,62.174,0,0,1-5.311,4.891s-8.106-.838-9.224,3.215,12.718,4.053,16.072,3.074,4.053,0,4.053,0,10.342.839,10.342-.838-.978-7.407-.978-7.407Z" fill="#575a89"/>
    <path id="Path_155" data-name="Path 155" d="M1086.267,5565.781l-1.817,5.59s-5.45,7.547-2.375,9.084,13.975,3.075,13.975-.978v-7.686s-1.118-5.451-2.236-6.01S1086.267,5565.781,1086.267,5565.781Z" fill="#575a89"/>
    <path id="Path_156" data-name="Path 156" d="M1055.4,5465.348s-5.893,5.119-5.753,5.818,2.935,45.561,2.935,45.561l1.537,29.069s-1.956,6.848-.978,8.385-1.4,1.957-1.4,1.957,10.063,9.084,14.256,5.171l3.913-50.732,10.761,36.9s1.817,19.566,3.913,19.566,10.622.419,10.482-.7.419-9.643-.559-14.674-7.547-44.862-7.547-44.862-.565-34.146.906-37.338-.766-6.546-.766-6.546l-9.783-3.773-11.74,1.4Z" fill="#2f2e41"/>
    <circle id="Ellipse_205" data-name="Ellipse 205" cx="9.783" cy="9.783" r="9.783" transform="translate(1057.477 5384.796)" fill="#a0616a"/>
    <path id="Path_157" data-name="Path 157" d="M1091.019,5415.683a8.778,8.778,0,0,0-6.149-5.591,54.076,54.076,0,0,1-8.246-2.795s-9.923,4.752-11.879,4.752-1.957-1.258-1.957-1.258-5.031,5.311-7.686,5.87-6.569,7.128-5.171,10.761a20.276,20.276,0,0,0,4.052,6.289s-.559,19.566,1.258,23.2c0,0-4.472,8.525-.279,9.084s20.264-1.4,23.06.559,7.966-.419,8.664,2.236,2.237,3.215,2.237,3.215,2.375-3.774.978-6.01S1091.019,5415.683,1091.019,5415.683Z" fill="#575a89"/>
    <path id="Path_158" data-name="Path 158" d="M1080.677,5468.231l-2.236,1.4s2.376,8.245,3.354,8.525,3.281-7.051,3.281-7.051Z" fill="#a0616a"/>
    <path id="Path_159" data-name="Path 159" d="M1059.542,5398.3a.8.8,0,0,0,.939-.388c.754-1.188-.635-2.72-.334-4.094.241-1.1,1.492-1.755,1.748-2.853.249-1.067-.517-2.27,0-3.235a2.15,2.15,0,0,1,2.267-.823c.848.133,1.653.5,2.51.557a12.29,12.29,0,0,0,3.346-.681,2.992,2.992,0,0,1,3.134.784c.843,1.2-.012,2.877.281,4.315.233,1.143,2.889,1.945,3.13,1.172a7.832,7.832,0,0,0-.32-5.465,10.921,10.921,0,0,1-.933-2.222c-.215-1.073.123-2.225-.231-3.26-.478-1.394-2.058-2.1-3.525-2.25s-2.959.114-4.417-.1a19.314,19.314,0,0,0-3.891-.675,6.468,6.468,0,0,0-4.054,2.262,34.316,34.316,0,0,1-3.272,3.441,6.393,6.393,0,0,0-1.049.9,3.523,3.523,0,0,0-.522,2.858c.176.984.56,1.923.722,2.909.153.927.106,1.875.171,2.812a4.941,4.941,0,0,0,.825,2.654,2.5,2.5,0,0,0,1.949,1.018c.264.006.487-.231.753-.169C1059.1,5397.848,1059.247,5398.165,1059.542,5398.3Z" fill="#2f2e41"/>
    <path id="Path_160" data-name="Path 160" d="M1085.5,5418.128l4.542-2.445s11.04,26.274,8.385,33.541-12.858,22.221-12.858,22.221-8.1-1.677-7.267-3.354,6.289-12.438,6.708-13.836,3.215-10.481,1.957-11.46-3.7-23.688-3.7-23.688Z" opacity="0.1" style="mix-blend-mode: normal;isolation: isolate"/>
    <path id="Path_161" data-name="Path 161" d="M1085.429,5414.145l5.59,1.538s11.041,26.274,8.385,33.541-12.857,22.221-12.857,22.221-8.106-1.677-7.268-3.354,6.289-12.438,6.709-13.836,3.214-10.481,1.956-11.46-7.267-25.156-7.267-25.156Z" fill="#575a89"/>
    <path id="Path_162" data-name="Path 162" d="M1145.809,5436.212c0,22.825-31.922,41.328-71.3,41.328s-71.3-18.5-71.3-41.328" fill="none" stroke="#3f3d56" stroke-width="0.575"/>
    <path id="Path_163" data-name="Path 163" d="M1132.839,5478.126c-15.937,8.6-36.732,13.8-59.48,13.8-21.811,0-41.826-4.781-57.486-12.752" fill="none" stroke="#3f3d56" stroke-width="0.575"/>
    <path id="Path_164" data-name="Path 164" d="M1110.115,5386.124c30.331,7.972,51.932,25.507,53.94,46.16" fill="none" stroke="#3f3d56" stroke-width="0.575"/>
    <path id="Path_165" data-name="Path 165" d="M986.886,5418.86c5.111-9.393,14.447-17.659,26.679-24.009" fill="none" stroke="#3f3d56" stroke-width="0.575"/>
    <path id="Path_166" data-name="Path 166" d="M1049.589,5519.407h58.006q17.21-29,0-58.006h-58.006Q1073.652,5490.4,1049.589,5519.407Z" fill="#f2f2f2"/>
    <rect id="Rectangle_37" data-name="Rectangle 37" width="32.686" height="4.143" transform="translate(1068.782 5472.45)" fill="#6c63ff"/>
    <rect id="Rectangle_38" data-name="Rectangle 38" width="43.274" height="1.381" transform="translate(1066.25 5484.879)" fill="#fff"/>
    <rect id="Rectangle_39" data-name="Rectangle 39" width="43.274" height="1.381" transform="translate(1066.25 5492.015)" fill="#fff"/>
    <path id="Path_167" data-name="Path 167" d="M1025,5480.035H966.994q-17.21-29,0-58.006H1025Q1000.938,5451.031,1025,5480.035Z" fill="#f2f2f2"/>
    <rect id="Rectangle_40" data-name="Rectangle 40" width="32.686" height="4.143" transform="translate(973.439 5428.934)" fill="#6c63ff"/>
    <rect id="Rectangle_41" data-name="Rectangle 41" width="43.274" height="1.381" transform="translate(966.304 5440.443)" fill="#fff"/>
    <rect id="Rectangle_42" data-name="Rectangle 42" width="43.274" height="1.381" transform="translate(966.304 5447.579)" fill="#fff"/>
    <rect id="Rectangle_43" data-name="Rectangle 43" width="43.274" height="1.381" transform="translate(966.304 5454.715)" fill="#fff"/>
    <rect id="Rectangle_44" data-name="Rectangle 44" width="43.274" height="1.381" transform="translate(966.304 5461.851)" fill="#fff"/>
    <path id="Path_168" data-name="Path 168" d="M1119.831,5453.315h58.006q17.21-29,0-58.006h-58.006Q1143.894,5424.312,1119.831,5453.315Z" fill="#f2f2f2"/>
    <rect id="Rectangle_45" data-name="Rectangle 45" width="32.686" height="4.143" transform="translate(1138.333 5401.063)" fill="#6c63ff"/>
    <rect id="Rectangle_46" data-name="Rectangle 46" width="43.274" height="1.381" transform="translate(1134.881 5412.573)" fill="#fff"/>
  </g>
</svg>
