<svg xmlns="http://www.w3.org/2000/svg" width="70.285" height="110.521" viewBox="0 0 70.285 110.521">
  <g id="Group_81" data-name="Group 81" transform="translate(-1295.715 -4682.059)">
    <g id="Group_75" data-name="Group 75">
      <circle id="Ellipse_173" data-name="Ellipse 173" cx="3.823" cy="3.823" r="3.823" transform="translate(1295.715 4682.059)" fill="#aab7e2"/>
      <circle id="Ellipse_174" data-name="Ellipse 174" cx="3.823" cy="3.823" r="3.823" transform="translate(1316.595 4682.059)" fill="#aab7e2"/>
      <circle id="Ellipse_175" data-name="Ellipse 175" cx="3.823" cy="3.823" r="3.823" transform="translate(1337.475 4682.059)" fill="#aab7e2"/>
      <circle id="Ellipse_176" data-name="Ellipse 176" cx="3.823" cy="3.823" r="3.823" transform="translate(1358.354 4682.059)" fill="#aab7e2"/>
    </g>
    <g id="Group_76" data-name="Group 76">
      <circle id="Ellipse_177" data-name="Ellipse 177" cx="3.823" cy="3.823" r="3.823" transform="translate(1295.715 4702.633)" fill="#aab7e2"/>
      <circle id="Ellipse_178" data-name="Ellipse 178" cx="3.823" cy="3.823" r="3.823" transform="translate(1316.595 4702.633)" fill="#aab7e2"/>
      <circle id="Ellipse_179" data-name="Ellipse 179" cx="3.823" cy="3.823" r="3.823" transform="translate(1337.475 4702.633)" fill="#aab7e2"/>
      <circle id="Ellipse_180" data-name="Ellipse 180" cx="3.823" cy="3.823" r="3.823" transform="translate(1358.354 4702.633)" fill="#aab7e2"/>
    </g>
    <g id="Group_77" data-name="Group 77">
      <circle id="Ellipse_181" data-name="Ellipse 181" cx="3.823" cy="3.823" r="3.823" transform="translate(1295.715 4723.208)" fill="#aab7e2"/>
      <circle id="Ellipse_182" data-name="Ellipse 182" cx="3.823" cy="3.823" r="3.823" transform="translate(1316.595 4723.208)" fill="#aab7e2"/>
      <circle id="Ellipse_183" data-name="Ellipse 183" cx="3.823" cy="3.823" r="3.823" transform="translate(1337.475 4723.208)" fill="#aab7e2"/>
      <circle id="Ellipse_184" data-name="Ellipse 184" cx="3.823" cy="3.823" r="3.823" transform="translate(1358.354 4723.208)" fill="#aab7e2"/>
    </g>
    <g id="Group_78" data-name="Group 78">
      <circle id="Ellipse_185" data-name="Ellipse 185" cx="3.823" cy="3.823" r="3.823" transform="translate(1295.715 4743.783)" fill="#aab7e2"/>
      <circle id="Ellipse_186" data-name="Ellipse 186" cx="3.823" cy="3.823" r="3.823" transform="translate(1316.595 4743.783)" fill="#aab7e2"/>
      <circle id="Ellipse_187" data-name="Ellipse 187" cx="3.823" cy="3.823" r="3.823" transform="translate(1337.475 4743.783)" fill="#aab7e2"/>
      <circle id="Ellipse_188" data-name="Ellipse 188" cx="3.823" cy="3.823" r="3.823" transform="translate(1358.354 4743.783)" fill="#aab7e2"/>
    </g>
    <g id="Group_79" data-name="Group 79">
      <circle id="Ellipse_189" data-name="Ellipse 189" cx="3.823" cy="3.823" r="3.823" transform="translate(1295.715 4764.358)" fill="#aab7e2"/>
      <circle id="Ellipse_190" data-name="Ellipse 190" cx="3.823" cy="3.823" r="3.823" transform="translate(1316.595 4764.358)" fill="#aab7e2"/>
      <circle id="Ellipse_191" data-name="Ellipse 191" cx="3.823" cy="3.823" r="3.823" transform="translate(1337.475 4764.358)" fill="#aab7e2"/>
      <circle id="Ellipse_192" data-name="Ellipse 192" cx="3.823" cy="3.823" r="3.823" transform="translate(1358.354 4764.358)" fill="#aab7e2"/>
    </g>
    <g id="Group_80" data-name="Group 80">
      <circle id="Ellipse_193" data-name="Ellipse 193" cx="3.823" cy="3.823" r="3.823" transform="translate(1295.715 4784.934)" fill="#aab7e2"/>
      <circle id="Ellipse_194" data-name="Ellipse 194" cx="3.823" cy="3.823" r="3.823" transform="translate(1316.595 4784.934)" fill="#aab7e2"/>
      <circle id="Ellipse_195" data-name="Ellipse 195" cx="3.823" cy="3.823" r="3.823" transform="translate(1337.475 4784.934)" fill="#aab7e2"/>
      <circle id="Ellipse_196" data-name="Ellipse 196" cx="3.823" cy="3.823" r="3.823" transform="translate(1358.354 4784.934)" fill="#aab7e2"/>
    </g>
  </g>
</svg>
