<svg xmlns="http://www.w3.org/2000/svg" width="550.65" height="394.09" viewBox="0 0 550.65 394.09">
  <g id="Group_83" data-name="Group 83" transform="translate(-100.123 -4151.616)">
    <path id="Path_75" data-name="Path 75" d="M246.444,4333.534c0,71.26,42.363,96.141,94.62,96.141s94.62-24.881,94.62-96.141-94.62-161.913-94.62-161.913S246.444,4262.274,246.444,4333.534Z" fill="#f2f2f2"/>
    <path id="Path_76" data-name="Path 76" d="M344.511,4418.774l-.969-59.638-40.33-73.781,40.177,64.425-.436-26.816-27.795-53.379,27.68,46.283h0l-.784-48.229-29.764-42.5,29.64,34.913-.49-88.435,3.076,117.072-.253-4.83,30.261-46.318-29.775,55.59,2.82,53.863.084-1.43,34.885-48.744-34.78,53.794.353,6.736.063.1-.029.553,7.153,136.657h-9.558l-1.147-70.586L309.9,4370.418Z" fill="#6c63ff"/>
    <path id="Path_77" data-name="Path 77" d="M100.123,4518.39c0,5.363,15.586,10.371,42.515,14.589,48.8,7.65,134.828,12.727,232.813,12.727,152.054,0,275.322-12.228,275.322-27.316,0-2.085-2.366-4.127-6.848-6.08-5.056-2.212-12.812-4.318-22.9-6.286-20.8-4.059-51.534-7.528-89.02-10.106-43.512-2.987-96.133-4.764-152.9-4.833q-1.822-.007-3.655,0-10.257,0-20.334.074-4.736.031-9.428.085c-33.432.355-65.072,1.305-93.825,2.737-1.284.064-2.562.133-3.836.2-.435.022-.87.048-1.3.069-.116.006-.233.011-.35.022q-8.475.445-16.578.949-2.658.159-5.268.334c-16.907,1.1-32.515,2.377-46.552,3.815q-3.6.366-7.056.748c-17.761,1.947-32.716,4.159-44.239,6.562C109.651,4510.22,100.123,4514.194,100.123,4518.39Z" fill="#f2f2f2"/>
    <ellipse id="Ellipse_198" data-name="Ellipse 198" cx="59.991" cy="13.9" rx="59.991" ry="13.9" transform="translate(191.33 4502.783)" opacity="0.1" style="mix-blend-mode: normal;isolation: isolate"/>
    <path id="Path_78" data-name="Path 78" d="M100.123,4518.39c0,5.363,15.586,10.371,42.515,14.589,20.361-2.223,34.456-7.024,34.456-12.584,0-6.923-21.835-12.663-50.414-13.724C109.651,4510.22,100.123,4514.194,100.123,4518.39Z" opacity="0.1" style="mix-blend-mode: normal;isolation: isolate"/>
    <path id="Path_79" data-name="Path 79" d="M352.282,4512.05c0,9.159,65.292,16.583,145.831,16.583,79.784,0,144.6-7.282,145.813-16.325-15.486-6.76-56.255-12.564-111.92-16.393-10.876-.292-22.226-.448-33.893-.448C417.574,4495.467,352.282,4502.89,352.282,4512.05Z" opacity="0.1" style="mix-blend-mode: normal;isolation: isolate"/>
    <rect id="Rectangle_12" data-name="Rectangle 12" width="241.915" height="362.385" transform="translate(365.456 4151.616)" fill="#f2f2f2"/>
    <rect id="Rectangle_13" data-name="Rectangle 13" width="227.283" height="111.203" transform="translate(379.107 4277.451)" fill="#a8a8a8"/>
    <rect id="Rectangle_14" data-name="Rectangle 14" width="224.844" height="105.838" transform="translate(289.852 4279.89)" fill="#585ce9"/>
    <rect id="Rectangle_15" data-name="Rectangle 15" width="50.236" height="18.046" transform="translate(450.682 4295.497)" fill="#8d8dfc"/>
    <rect id="Rectangle_16" data-name="Rectangle 16" width="184.85" height="4.877" transform="translate(303.631 4327.199)" fill="#8d8dfc"/>
    <rect id="Rectangle_17" data-name="Rectangle 17" width="184.85" height="4.877" transform="translate(303.631 4339.88)" fill="#8d8dfc"/>
    <rect id="Rectangle_18" data-name="Rectangle 18" width="184.85" height="4.877" transform="translate(303.631 4352.562)" fill="#8d8dfc"/>
    <rect id="Rectangle_19" data-name="Rectangle 19" width="184.85" height="4.877" transform="translate(303.631 4365.243)" fill="#8d8dfc"/>
    <rect id="Rectangle_20" data-name="Rectangle 20" width="50.236" height="18.046" transform="translate(554.69 4192.585)" fill="#a8a8a8"/>
    <rect id="Rectangle_21" data-name="Rectangle 21" width="184.85" height="4.877" transform="translate(407.639 4224.288)" fill="#a8a8a8"/>
    <rect id="Rectangle_22" data-name="Rectangle 22" width="184.85" height="4.877" transform="translate(407.639 4236.969)" fill="#a8a8a8"/>
    <rect id="Rectangle_23" data-name="Rectangle 23" width="184.85" height="4.877" transform="translate(407.639 4249.65)" fill="#a8a8a8"/>
    <rect id="Rectangle_24" data-name="Rectangle 24" width="184.85" height="4.877" transform="translate(407.639 4262.331)" fill="#a8a8a8"/>
    <rect id="Rectangle_25" data-name="Rectangle 25" width="50.236" height="18.046" transform="translate(552.739 4399.872)" fill="#a8a8a8"/>
    <rect id="Rectangle_26" data-name="Rectangle 26" width="184.85" height="4.877" transform="translate(405.688 4431.574)" fill="#a8a8a8"/>
    <rect id="Rectangle_27" data-name="Rectangle 27" width="184.85" height="4.877" transform="translate(405.688 4444.255)" fill="#a8a8a8"/>
    <rect id="Rectangle_28" data-name="Rectangle 28" width="184.85" height="4.877" transform="translate(405.688 4456.936)" fill="#a8a8a8"/>
    <rect id="Rectangle_29" data-name="Rectangle 29" width="184.85" height="4.877" transform="translate(405.688 4469.617)" fill="#a8a8a8"/>
    <path id="Path_80" data-name="Path 80" d="M267.184,4226.13s-10.029,12.849-8.775,21.937-20.684-12.535-20.684-12.535,7.521-15.67,3.447-23.191S267.184,4226.13,267.184,4226.13Z" fill="#ffb9b9"/>
    <path id="Path_81" data-name="Path 81" d="M232.084,4486.244s-13.162,14.416-10.969,17.549,40.741,15.043,45.128,14.416,6.582-3.76,5.015-4.7-11.6-6.268-11.6-6.268l-8.461-9.715s-6.268-3.448-6.268-5.328S232.084,4486.244,232.084,4486.244Z" fill="#2f2e41"/>
    <path id="Path_82" data-name="Path 82" d="M254.335,4502.226s5.014,8.149,5.954,8.462-4.7,11.6-4.7,11.6l-13.162-4.074-7.208-5.954,1.567-8.148Z" fill="#ffb9b9"/>
    <path id="Path_83" data-name="Path 83" d="M267.81,4346.785l6.268,27.892s21.624,48.575,6.581,57.037l-32.906,62.991L230.2,4486.87l29.458-64.558-13.476-74.273Z" fill="#d0cde1"/>
    <path id="Path_84" data-name="Path 84" d="M267.81,4346.785l6.268,27.892s21.624,48.575,6.581,57.037l-32.906,62.991L230.2,4486.87l29.458-64.558-13.476-74.273Z" opacity="0.1" style="mix-blend-mode: normal;isolation: isolate"/>
    <path id="Path_85" data-name="Path 85" d="M265.617,4351.173H268.8A177.157,177.157,0,0,1,267.184,4380c-2.194,15.983-7.835,52.65-7.835,52.65s.627,6.9-1.254,9.088-2.193-.627-2.507,4.388-3.29,39.876-3.29,39.876-2.037,7.132.156,8.7,6.581,10.029,3.448,11.282-24.758,2.821-25.7,1.88,0-59.857,0-59.857.626-11.909,1.253-12.536,3.448-9.088,2.507-10.968-.313-7.522-.313-8.462,2.82,0,.313-4.074-2.82-36.666-2.82-36.666-13.476-20.684-9.4-26.012Z" fill="#d0cde1"/>
    <circle id="Ellipse_199" data-name="Ellipse 199" cx="20.684" cy="20.684" r="20.684" transform="translate(237.725 4189.464)" fill="#ffb9b9"/>
    <path id="Path_86" data-name="Path 86" d="M237.725,4232.085s12.536,3.134,17.55,10.655l4.387.94v4.387s8.148,26.012,6.268,37.294,0,33.219,3.134,39.174,4.074,7.207,2.507,9.715-3.761,10.968-2.194,14.729,0,7.521-14.416,8.461-34.786.941-34.786-4.074,1.254-19.116,0-22.877-1.88-6.268-1.253-9.715-1.254-41.994-1.254-41.994S217.355,4240.233,237.725,4232.085Z" fill="#2f2e41"/>
    <path id="Path_87" data-name="Path 87" d="M267.184,4328.922l17.236,25.7s18.177,16.61,11.6,24.131-23.817-21.937-23.817-21.937L253.4,4335.5Z" fill="#ffb9b9"/>
    <path id="Path_88" data-name="Path 88" d="M256.215,4512.255s.627-4.074,2.821-4.074,16.923,10.028,16.923,10.028,19.43,2.194,11.908,6.268-53.589,4.7-53.9,3.134-.94-17.019,1.254-16.971,19.743,3.495,19.743,3.495Z" fill="#2f2e41"/>
    <path id="Path_89" data-name="Path 89" d="M256.937,4199.462a5.192,5.192,0,0,0,2.364.534c.846.048,1.855,0,2.3-.722a3.29,3.29,0,0,0,.288-1.5,4.958,4.958,0,0,1,5.571-4.258c.075.01.149.022.223.035a7.115,7.115,0,0,1-.923,2.941,6.287,6.287,0,0,0,5.529-.736l.318,4.221a3.444,3.444,0,0,0,3.545-.119c.981-.769,1.059-2.574-.05-3.142,1.37-.286,3.045-.9,3.146-2.295.092-1.274-1.26-2.206-1.509-3.458-.2-1.021.357-2.131-.039-3.094-.521-1.265-2.411-1.59-2.79-2.9a11.378,11.378,0,0,1,.019-2.078c-.174-1.816-2.457-2.57-4.278-2.467s-3.809.587-5.356-.379a15.645,15.645,0,0,1-1.933-1.808,5.742,5.742,0,0,0-6.668-.58,11.324,11.324,0,0,1-2.188,1.363c-1.672.567-3.416-.5-5.163-.752a4.29,4.29,0,0,0-3.6,1.042,2.946,2.946,0,0,0-.536,3.547,5.751,5.751,0,0,0-3.078.043,1.987,1.987,0,0,0-1.257,2.48,3.23,3.23,0,0,1,.39.8c.09.546-.436,1.013-.967,1.17s-1.107.127-1.627.318c-2.148.786-1.633,4.22-3.324,5.761a13.6,13.6,0,0,1-1.832,1.121,4.458,4.458,0,0,0-1.573,5.387,4.935,4.935,0,0,1,.838,2.288c-.1,1.15-1.329,1.781-2.194,2.546a5.106,5.106,0,0,0-1.189,5.862c.8,1.659,2.519,2.917,2.693,4.749.076.8-.163,1.592-.149,2.392a4.925,4.925,0,0,0,2.118,3.719,11.01,11.01,0,0,0,4.065,1.692c.683.163,1.5.419,1.664,1.1.2.81-.708,1.546-.614,2.374a1.372,1.372,0,0,0,.553.894c1.222.957,3.157.137,3.9-1.223a8.134,8.134,0,0,0,.536-4.556l-.421-5.628c-.131-1.751-.119-3.831,1.309-4.853,1.578-1.131,3.876-.215,5.661-.979,1.86-.8,2.527-3.126,2.452-5.148s-.655-4.046-.322-6.041c.413-2.473,2.613-4.135,4.834-2.532C255.732,4196.315,255.4,4198.555,256.937,4199.462Z" fill="#2f2e41"/>
    <path id="Path_90" data-name="Path 90" d="M239.6,4247.127s12.536,5.015,12.536,15.67-.627,24.758,1.567,29.458,4.074,6.268,2.82,10.029-3.447,3.134,0,5.954,3.134-1.88,3.448,2.821-3.134,5.327,0,7.521,11.282,10.969,7.834,13.789-12.535,11.909-15.669,8.462-4.7-12.222-9.088-11.6-5.015.941-4.388-2.193,3.447-3.134-.313-4.074-5.328,1.253-4.074-1.881,2.193-4.387-.314-7.834-3.76-4.388-3.447-7.835-6.9-34.473-6.9-34.473S221.429,4244.62,239.6,4247.127Z" opacity="0.1" style="mix-blend-mode: normal;isolation: isolate"/>
    <path id="Path_91" data-name="Path 91" d="M243.053,4246.5s12.535,5.014,12.535,15.669-.627,24.758,1.567,29.459,4.074,6.267,2.821,10.028-3.448,3.134,0,5.955,3.134-1.881,3.447,2.82-3.134,5.328,0,7.521,11.282,10.969,7.835,13.79-12.536,11.908-15.67,8.461-4.7-12.222-9.088-11.6-5.014.94-4.387-2.194,3.447-3.134-.314-4.074-5.327,1.253-4.074-1.881,2.194-4.387-.313-7.834-3.761-4.388-3.448-7.835-6.894-34.473-6.894-34.473S224.876,4243.993,243.053,4246.5Z" opacity="0.1" style="mix-blend-mode: normal;isolation: isolate"/>
    <path id="Path_92" data-name="Path 92" d="M241.486,4245.56s12.535,5.015,12.535,15.67-.626,24.758,1.567,29.458,4.074,6.268,2.821,10.029-3.448,3.134,0,5.954,3.134-1.88,3.447,2.821-3.134,5.327,0,7.521,11.282,10.969,7.835,13.789-12.536,11.909-15.67,8.462-4.7-12.222-9.088-11.6-5.014.941-4.387-2.193,3.447-3.134-.314-4.074-5.327,1.253-4.074-1.881,2.194-4.387-.313-7.834-3.761-4.388-3.448-7.835-6.894-34.473-6.894-34.473S223.309,4243.053,241.486,4245.56Z" fill="#2f2e41"/>
    <path id="Path_93" data-name="Path 93" d="M145.6,4512.032s-5.454-.168-7.1-1.339-8.389-2.568-8.8-.691-8.2,9.337-2.039,9.386,14.308-.959,15.948-1.958S145.6,4512.032,145.6,4512.032Z" fill="#a8a8a8"/>
  </g>
</svg>
