<svg xmlns="http://www.w3.org/2000/svg" width="739.331" height="471.778" viewBox="0 0 739.331 471.778">
  <g id="Group_84" data-name="Group 84" transform="translate(-626.669 -4736.767)">
    <path id="Path_94" data-name="Path 94" d="M758.166,5204.44c7.051-5.957,11.333-15.368,10.21-24.53s-8.079-17.584-17.1-19.53-19.308,3.44-22.049,12.254c-1.508-16.993-3.246-34.7-12.281-49.17-8.181-13.1-22.35-22.479-37.706-24.156s-31.524,4.657-41.1,16.778-11.922,29.741-5.214,43.656c4.941,10.251,14.044,17.88,23.582,24.086A152.208,152.208,0,0,0,760.6,5206.6Z" fill="#f2f2f2"/>
    <path id="Path_95" data-name="Path 95" d="M653.322,5104.317a249.047,249.047,0,0,1,34.7,34.46,249.713,249.713,0,0,1,39.088,65.32c.7,1.725-2.1,2.476-2.793.77a248.306,248.306,0,0,0-73.047-98.5C649.828,5105.187,651.888,5103.149,653.322,5104.317Z" fill="#fff"/>
    <path id="Path_96" data-name="Path 96" d="M1178.9,4736.767H797.079a5.493,5.493,0,0,0-5.488,5.488v258.727a5.493,5.493,0,0,0,5.488,5.488H1178.9a5.493,5.493,0,0,0,5.488-5.488V4742.255A5.493,5.493,0,0,0,1178.9,4736.767Zm3.92,264.215a3.921,3.921,0,0,1-3.92,3.92H797.079a3.921,3.921,0,0,1-3.92-3.92V4742.255a3.921,3.921,0,0,1,3.92-3.92H1178.9a3.921,3.921,0,0,1,3.92,3.92Z" fill="#3f3d56"/>
    <rect id="Rectangle_30" data-name="Rectangle 30" width="391.226" height="1.568" transform="translate(792.375 4758.751)" fill="#3f3d56"/>
    <circle id="Ellipse_200" data-name="Ellipse 200" cx="4.704" cy="4.704" r="4.704" transform="translate(800.999 4743.823)" fill="#3f3d56"/>
    <circle id="Ellipse_201" data-name="Ellipse 201" cx="4.704" cy="4.704" r="4.704" transform="translate(814.523 4743.823)" fill="#3f3d56"/>
    <circle id="Ellipse_202" data-name="Ellipse 202" cx="4.704" cy="4.704" r="4.704" transform="translate(828.048 4743.823)" fill="#3f3d56"/>
    <path id="Path_97" data-name="Path 97" d="M1020.917,4795.176H955.059a5.488,5.488,0,1,1,0-10.976h65.858a5.488,5.488,0,1,1,0,10.976Z" fill="#ccc"/>
    <path id="Path_98" data-name="Path 98" d="M1066,4821.833H909.978a5.488,5.488,0,1,1,0-10.976H1066a5.488,5.488,0,0,1,0,10.976Z" fill="#ccc"/>
    <path id="Path_99" data-name="Path 99" d="M1112.789,4985.655a29.9,29.9,0,1,1,29.9-29.9A29.9,29.9,0,0,1,1112.789,4985.655Zm0-57.74a27.839,27.839,0,1,0,27.839,27.839A27.839,27.839,0,0,0,1112.789,4927.915Z" fill="#3f3d56"/>
    <path id="Path_100" data-name="Path 100" d="M862.109,4905.573a29.9,29.9,0,1,1,29.9-29.9h0A29.935,29.935,0,0,1,862.109,4905.573Zm0-57.74a27.839,27.839,0,1,0,27.839,27.839A27.838,27.838,0,0,0,862.109,4847.833Z" fill="#3f3d56"/>
    <path id="Path_101" data-name="Path 101" d="M873.724,4891.523a2.954,2.954,0,0,1-2.955-2.95V4871.8a2.953,2.953,0,0,1,2.95-2.95h.005a2.953,2.953,0,0,1,2.95,2.95v16.777A2.953,2.953,0,0,1,873.724,4891.523Zm-7.7,0a2.963,2.963,0,0,1-2.992-2.933v-9.055a2.954,2.954,0,0,1,2.95-2.949h.043a2.953,2.953,0,0,1,2.95,2.949v9.038A2.954,2.954,0,0,1,866.022,4891.523Zm-7.777,0a2.954,2.954,0,0,1-2.955-2.95v-25.8a2.954,2.954,0,0,1,2.95-2.95h.005a2.955,2.955,0,0,1,2.95,2.95v25.8A2.954,2.954,0,0,1,858.245,4891.523Zm-7.747,0a2.951,2.951,0,0,1-2.953-2.947v-.006l0-3.875a2.95,2.95,0,0,1,5.9,0v3.875A2.954,2.954,0,0,1,850.5,4891.523Z" fill="#6c63ff"/>
    <path id="Path_102" data-name="Path 102" d="M1315.7,5206.637a29.9,29.9,0,1,1,29.9-29.9A29.9,29.9,0,0,1,1315.7,5206.637Zm0-57.74a27.839,27.839,0,1,0,27.839,27.839h0A27.871,27.871,0,0,0,1315.7,5148.9Z" fill="#3f3d56"/>
    <path id="Path_103" data-name="Path 103" d="M1323.942,5171.547l-5.83,8.913a3.16,3.16,0,0,1,.72,2.019,3.207,3.207,0,0,1-6.414,0,3.741,3.741,0,0,1,.056-.615l-3.848-2.241a3.2,3.2,0,0,1-3.8.48l-4.094,3.835v3.823a2.863,2.863,0,0,0,2.85,2.856h24.236a2.869,2.869,0,0,0,2.856-2.856v-14.177l-3.915-2.6a3.219,3.219,0,0,1-2.813.567Z" fill="#6c63ff"/>
    <path id="Path_104" data-name="Path 104" d="M1306.4,5174.132a3.207,3.207,0,0,1,3.207,3.207h0v.413l4.014,2.246a3.2,3.2,0,0,1,2.031-.726,3.509,3.509,0,0,1,.7.074l5.841-9.043a3.2,3.2,0,1,1,5.8-1.847,3.394,3.394,0,0,1-.086.758l2.764,1.846v-5.349a2.868,2.868,0,0,0-2.856-2.856h-24.236a2.862,2.862,0,0,0-2.85,2.856v15.322l2.672-2.561a3.2,3.2,0,0,1,3-4.309Z" fill="#6c63ff"/>
    <path id="Path_105" data-name="Path 105" d="M989.174,4905.573a29.9,29.9,0,1,1,29.9-29.9h0A29.936,29.936,0,0,1,989.174,4905.573Zm0-57.74a27.839,27.839,0,1,0,27.838,27.839h0A27.87,27.87,0,0,0,989.174,4847.833Z" fill="#3f3d56"/>
    <path id="Path_106" data-name="Path 106" d="M973.288,4886.511a2.175,2.175,0,0,1-1.539-3.71l11.048-11.079a1.843,1.843,0,0,1,1.313-.545h0a1.841,1.841,0,0,1,1.312.543l5.124,5.124a1.108,1.108,0,0,0,.788.327h0a1.106,1.106,0,0,0,.788-.327l7.234-7.246a.371.371,0,0,0,0-.525h0l-2.34-2.337a1.114,1.114,0,0,1,.787-1.9h8.313a1.115,1.115,0,0,1,1.114,1.114v8.309a1.114,1.114,0,0,1-1.9.788l-2.344-2.345a.371.371,0,0,0-.525,0h0l-9.8,9.79a1.842,1.842,0,0,1-1.313.543h0a1.84,1.84,0,0,1-1.313-.544l-5.126-5.126a1.141,1.141,0,0,0-1.576,0l-8.512,8.512A2.16,2.16,0,0,1,973.288,4886.511Z" fill="#6c63ff"/>
    <path id="Path_107" data-name="Path 107" d="M989.174,4983.975a29.9,29.9,0,1,1,29.9-29.9h0A29.935,29.935,0,0,1,989.174,4983.975Z" fill="#e6e6e6"/>
    <path id="Path_108" data-name="Path 108" d="M1113.049,4903.221a29.9,29.9,0,1,1,29.9-29.9h0A29.935,29.935,0,0,1,1113.049,4903.221Z" fill="#e6e6e6"/>
    <path id="Path_109" data-name="Path 109" d="M862.11,4924.173a30.012,30.012,0,0,0-14.653,3.841,27.846,27.846,0,0,1,5.331,54.474,28.641,28.641,0,0,0,3.568.933,29.9,29.9,0,1,0,5.754-59.248Z" fill="#e6e6e6"/>
    <path id="Path_110" data-name="Path 110" d="M850.766,4926.415a29.054,29.054,0,0,0-5.755-.565,29.935,29.935,0,1,0,5.755.565Zm2.022,56.073a27.842,27.842,0,1,1-7.777-54.576c.823,0,1.638.04,2.446.1a27.846,27.846,0,0,1,5.331,54.474Z" fill="#3f3d56"/>
    <path id="Path_111" data-name="Path 111" d="M862.421,4950.49a16.772,16.772,0,0,0-20.055-12.627c-.423.1-.862.215-1.248.334l4,17.559,17.559-3.989C862.6,4951.359,862.517,4950.913,862.421,4950.49Z" fill="#6c63ff"/>
    <path id="Path_112" data-name="Path 112" d="M860.72,4954.85l-17.567,3.988-3.988-17.559a16.765,16.765,0,1,0,21.54,13.571Z" fill="#6c63ff"/>
    <path id="Path_113" data-name="Path 113" d="M1169.4,5095.418a29.9,29.9,0,1,1,29.9-29.9A29.9,29.9,0,0,1,1169.4,5095.418Zm0-57.74a27.839,27.839,0,1,0,27.839,27.839A27.838,27.838,0,0,0,1169.4,5037.678Z" fill="#3f3d56"/>
    <path id="Path_114" data-name="Path 114" d="M1182.3,5077.5a5.533,5.533,0,1,1,5.53-5.538A5.534,5.534,0,0,1,1182.3,5077.5Zm-12.9,0a5.537,5.537,0,0,1-5.53-5.53v-12.9a5.53,5.53,0,0,1,11.06,0v12.9A5.536,5.536,0,0,1,1169.4,5077.5Zm-12.9,0a5.541,5.541,0,0,1-5.534-5.534v-5.155a5.534,5.534,0,0,1,11.068,0v5.155A5.541,5.541,0,0,1,1156.5,5077.5Z" fill="#6c63ff"/>
    <path id="Path_115" data-name="Path 115" d="M790.239,5199.666l9.114-1.034.348-35.646-13.451,1.526Z" fill="#a0616a"/>
    <path id="Path_116" data-name="Path 116" d="M817.89,5205.1l-28.644,3.25h0l-1.255-11.066h0l17.576-2a11.138,11.138,0,0,1,12.323,9.811Z" fill="#2f2e41"/>
    <path id="Path_117" data-name="Path 117" d="M696.51,5199.1h9.172l4.363-35.379H696.508Z" fill="#a0616a"/>
    <path id="Path_118" data-name="Path 118" d="M723.372,5207.613H694.544v-11.138h17.689a11.139,11.139,0,0,1,11.139,11.138Z" fill="#2f2e41"/>
    <path id="Path_119" data-name="Path 119" d="M762.319,5040.884l5.237,17.035,28.43,61.522,7.482,58.357-17.208.748-10.474-53.867-35.912-38.905-31.423,101.75-14.215-1.5s11.971-131.677,28.43-145.144C722.666,5040.884,749.6,5028.166,762.319,5040.884Z" fill="#2f2e41"/>
    <circle id="Ellipse_203" data-name="Ellipse 203" cx="18.376" cy="18.376" r="18.376" transform="translate(720.712 4930.629)" fill="#a0616a"/>
    <path id="Path_120" data-name="Path 120" d="M764.189,5044.251s2.245-76.312-29.178-71.075-18.33,78.931-18.33,78.931,6.734,13.467,23.193-1.5S764.189,5044.251,764.189,5044.251Z" fill="#6c63ff"/>
    <path id="Path_121" data-name="Path 121" d="M829.242,4980.732a7.522,7.522,0,0,1-11.437,1.507l-23.537,12.681,1.233-13.838,22.162-9.92a7.564,7.564,0,0,1,11.579,9.57Z" fill="#a0616a"/>
    <path id="Path_122" data-name="Path 122" d="M738.912,4982.493l38.206,6.458,34.239-16.163,5.2,11.116-37.481,23.873s-39.681,2.694-48.856-7.77c-3.44-3.924-3.833-7.5-2.981-10.428A10.31,10.31,0,0,1,738.912,4982.493Z" fill="#6c63ff"/>
    <path id="Path_123" data-name="Path 123" d="M736.9,4968.313a.759.759,0,0,0-.107-1.21,10.686,10.686,0,0,1,1.03-18.732c5.4-2.576,12.723-.572,16.717-5.521a9.285,9.285,0,0,0,1.722-7.54c-.861-4.675-4.376-8.147-8.312-10.526a30.247,30.247,0,0,0-45.7,29.279c.508,4.5,1.9,9.545-.779,13.2-2.355,3.215-6.8,3.818-10.7,4.617-8.374,1.713-16.454,5.666-22.136,12.051s-8.715,15.344-7,23.718,8.588,15.734,17.036,17.032c6.877,1.057,13.978-1.864,19.028-6.65s8.242-11.249,10.255-17.908c2.39-7.905,3.333-16.423,7.647-23.464,4.222-6.891,13.321-11.83,20.451-8.241A.765.765,0,0,0,736.9,4968.313Z" fill="#2f2e41"/>
    <path id="Path_124" data-name="Path 124" d="M1269.415,5104.328a7.6,7.6,0,0,0,2.717-11.329l17.705-97.983-16.522-.218-12.295,96.893a7.639,7.639,0,0,0,8.4,12.637Z" fill="#ffb8b8"/>
    <path id="Path_125" data-name="Path 125" d="M1218.138,5099.683l-6.272,29.792.784,66.642h11.76l5.488-65.074,8.624-27.441Z" fill="#ffb8b8"/>
    <path id="Path_126" data-name="Path 126" d="M1257.005,5101.918l-6.272,29.792.784,66.642h11.76l5.488-65.073,8.624-27.441Z" fill="#ffb8b8"/>
    <path id="Path_127" data-name="Path 127" d="M1208.545,5195.362l18.537-.047h0l.03,11.672h0l-30.209.076h0A11.671,11.671,0,0,1,1208.545,5195.362Z" fill="#2f2e41"/>
    <path id="Path_128" data-name="Path 128" d="M1247.7,5196.622l18.538-.047h0l.029,11.672h0l-30.209.076h0A11.672,11.672,0,0,1,1247.7,5196.622Z" fill="#2f2e41"/>
    <circle id="Ellipse_204" data-name="Ellipse 204" cx="19.256" cy="19.256" r="19.256" transform="translate(1227.499 4915.063)" fill="#ffb8b8"/>
    <path id="Path_129" data-name="Path 129" d="M1289.31,4981.948c-5.859-9.193-24.253-31-51.625-18.481a11.638,11.638,0,0,0-6.717,11.47c1.324,17.483,3,62.026-11.262,88.681,0,0,41.553,12.544,64.29.784,0,0-7.84-52.53,0-62.722a42.252,42.252,0,0,0,6.282-10.762A10.1,10.1,0,0,0,1289.31,4981.948Z" fill="#3f3d56"/>
    <path id="Path_130" data-name="Path 130" d="M1281.644,4981.3l7.694,3.205a2.917,2.917,0,0,1,1.792,2.57l.706,16.961-17.248-1.568Z" fill="#3f3d56"/>
    <path id="Path_131" data-name="Path 131" d="M1222.842,5062.05s-17.248,32.145-14.112,61.937l24.305,3.92,17.248-41.553-3.92,42.337,25.089.784s16.464-61.153,10.976-66.641Z" fill="#2f2e41"/>
    <path id="Path_132" data-name="Path 132" d="M1198.345,5064.919a7.6,7.6,0,0,0,6.044-9.96l34.989-65.96-15.667-5.247-29.506,66.571a7.639,7.639,0,0,0,4.14,14.6Z" fill="#ffb8b8"/>
    <path id="Path_133" data-name="Path 133" d="M1244.155,4971.143l-6.48-2.9s-5.495-3.407-10.366,4.089-10.132,23.922-10.132,23.922l21.145,5.95Z" fill="#3f3d56"/>
    <path id="Path_134" data-name="Path 134" d="M1249.84,4943.59c.691-2.4.491-5.649-1.836-6.557-1.212-.473-2.565-.1-3.86.033a10.31,10.31,0,0,1-7.12-1.96c-2.407-1.79-3.894-4.525-5.306-7.172l-2.136-4a17.4,17.4,0,0,1-1.211-2.608,10.29,10.29,0,0,1,2.743-10.256,14.882,14.882,0,0,1,10.163-3.985,27.425,27.425,0,0,1,10.86,2.327,48,48,0,0,1,16.192,10.878c3.005,3.073,5.74,7.077,5.112,11.329-.489,3.31-2.9,5.96-5.2,8.389l-8.346,8.81c-1.478,1.56-3.057,3.184-5.121,3.784s-4.722-.282-5.285-2.356A24.394,24.394,0,0,1,1249.84,4943.59Z" fill="#2f2e41"/>
    <path id="Path_135" data-name="Path 135" d="M1365.216,5208.545H627.453a.784.784,0,1,1,0-1.568h737.763a.784.784,0,1,1,0,1.568Z" fill="#3f3d56"/>
    <path id="Path_136" data-name="Path 136" d="M1123.765,4968.3h-21.952a2.352,2.352,0,1,1,0-4.7h21.952a2.352,2.352,0,1,1,0,4.7Z" fill="#6c63ff"/>
    <path id="Path_137" data-name="Path 137" d="M1123.765,4958.106h-21.952a2.352,2.352,0,0,1,0-4.7h21.952a2.352,2.352,0,1,1,0,4.7Z" fill="#6c63ff"/>
    <path id="Path_138" data-name="Path 138" d="M1123.765,4947.914h-21.952a2.352,2.352,0,0,1,0-4.7h21.952a2.352,2.352,0,1,1,0,4.7Z" fill="#6c63ff"/>
  </g>
</svg>
