<svg xmlns="http://www.w3.org/2000/svg" xmlns:xlink="http://www.w3.org/1999/xlink" width="100" height="100" viewBox="0 0 100 100">
  <defs>
    <linearGradient id="linear-gradient" x1="0.054" y1="56.868" x2="0.985" y2="57.489" gradientUnits="objectBoundingBox">
      <stop offset="0" stop-color="#d2deff" stop-opacity="0"/>
      <stop offset="0.459" stop-color="#cee2fd" stop-opacity="0.671"/>
      <stop offset="0.685" stop-color="#c9e7fa"/>
    </linearGradient>
  </defs>
  <g id="Group_136" data-name="Group 136" transform="translate(-303 -800.279)">
    <rect id="Rectangle_56" data-name="Rectangle 56" width="100" height="100" transform="translate(303 800.279)" fill="none"/>
    <g id="Group_135" data-name="Group 135">
      <g id="Group_122" data-name="Group 122">
        <path id="Path_206" data-name="Path 206" d="M303.956,863.611c3.408,33.764,57.113,32.645,82.188,26.614,16.108-3.873,17.109-11.615,16.818-28.125-.187-10.642.672-38.813-6.251-47.68-10.634-13.62-20.161-5.078-33.331-.632-16.892,5.7-23.474-4.479-39.546-4.176-23.563.445-21.637,36.573-19.878,54Z" fill="url(#linear-gradient)"/>
      </g>
      <g id="Group_134" data-name="Group 134">
        <g id="Group_132" data-name="Group 132">
          <g id="Group_126" data-name="Group 126">
            <g id="Group_125" data-name="Group 125">
              <path id="Path_207" data-name="Path 207" d="M384.316,815.651a4.016,4.016,0,0,0-1.211-.2c.016,0,.031,0,.047,0h-54.8a4.07,4.07,0,0,0-4.07,4.069v60.14h-5.948a1.954,1.954,0,0,0-1.953,1.953v3.336a4.07,4.07,0,0,0,4.069,4.071h54.8c-.039,0-.078-.005-.118-.007a4.066,4.066,0,0,0,3.95-4.062V828.827h6.082a1.953,1.953,0,0,0,1.954-1.953v-7.357a4.069,4.069,0,0,0-2.8-3.866Z" fill="#bae1f8"/>
              <g id="Group_124" data-name="Group 124">
                <g id="Group_123" data-name="Group 123">
                  <path id="Path_208" data-name="Path 208" d="M376.265,815.61v9.311h8.9a1.954,1.954,0,0,0,1.954-1.953V815.61a4.067,4.067,0,0,0-2.8-3.865,4.017,4.017,0,0,0-1.27-.2H372.2A4.069,4.069,0,0,1,376.265,815.61Z" fill="#226191"/>
                  <path id="Path_209" data-name="Path 209" d="M383.152,811.542a4.07,4.07,0,0,0-4.071,4.068v65.432a4.069,4.069,0,0,1-4.068,4.068H324.285v-69.5a4.069,4.069,0,0,1,4.07-4.068Z" fill="#fff"/>
                  <path id="Path_210" data-name="Path 210" d="M379.081,831.139V815.61a4.07,4.07,0,0,1,4.071-4.068h-54.8a4.069,4.069,0,0,0-4.07,4.068v15.529Z" fill="#a9d2ea"/>
                  <path id="Path_211" data-name="Path 211" d="M375.249,885.11h-54.8a4.069,4.069,0,0,1-4.069-4.07V877.7a1.953,1.953,0,0,1,1.953-1.953h50.891a1.953,1.953,0,0,1,1.953,1.953v3.336a4.069,4.069,0,0,0,4.068,4.07Z" fill="#226191"/>
                  <path id="Path_212" data-name="Path 212" d="M384.623,810.818a5.034,5.034,0,0,0-1.4-.246c-.022,0-.044-.007-.067-.007h-54.8a5.052,5.052,0,0,0-5.047,5.045v53.515a.976.976,0,1,0,1.953,0V815.61a3.1,3.1,0,0,1,3.094-3.091h50.811a5.016,5.016,0,0,0-1.062,3.091v65.432a2.976,2.976,0,1,1-5.947,0v-3.336a2.933,2.933,0,0,0-2.929-2.93H362.18a.977.977,0,1,0,0,1.953h7.048a.978.978,0,0,1,.976.977v3.336a5.021,5.021,0,0,0,1.062,3.093H320.454a3.1,3.1,0,0,1-3.093-3.093v-3.336a.978.978,0,0,1,.977-.977h37.2a.977.977,0,1,0,0-1.953h-37.2a2.933,2.933,0,0,0-2.93,2.93v3.336a5.052,5.052,0,0,0,5.046,5.046h54.8a.975.975,0,0,0,.2-.02,5.051,5.051,0,0,0,4.611-5.025V825.9h5.106a2.932,2.932,0,0,0,2.929-2.929V815.61a5.028,5.028,0,0,0-3.47-4.792Zm1.517,12.15a.977.977,0,0,1-.976.976h-5.106V815.61a3.1,3.1,0,0,1,3.048-3.089,3.085,3.085,0,0,1,3.034,3.089Z" fill="#014073"/>
                </g>
              </g>
              <circle id="Ellipse_246" data-name="Ellipse 246" cx="1.558" cy="1.558" r="1.558" transform="translate(330.368 820.185)" fill="#ff7eb8"/>
            </g>
          </g>
          <g id="Group_130" data-name="Group 130">
            <g id="Group_127" data-name="Group 127">
              <path id="Path_213" data-name="Path 213" d="M352.1,870.527H334.461a.977.977,0,0,1-.976-.977V848.717a.977.977,0,0,1,.976-.977H352.1Z" fill="#a9d2ea"/>
              <path id="Path_214" data-name="Path 214" d="M352.1,847.74h9.308v22.787H352.1Z" fill="#bae1f8"/>
              <path id="Path_215" data-name="Path 215" d="M369.738,870.527h-8.331V847.74h8.331a.977.977,0,0,1,.976.977V869.55A.977.977,0,0,1,369.738,870.527Z" fill="#3e85a9"/>
            </g>
            <g id="Group_128" data-name="Group 128">
              <circle id="Ellipse_247" data-name="Ellipse 247" cx="1.207" cy="1.207" r="1.207" transform="translate(364.854 864.6)" fill="#ff7eb8"/>
              <circle id="Ellipse_248" data-name="Ellipse 248" cx="1.207" cy="1.207" r="1.207" transform="translate(355.546 860.498)" fill="#ff7eb8"/>
              <circle id="Ellipse_249" data-name="Ellipse 249" cx="1.207" cy="1.207" r="1.207" transform="translate(355.546 856.397)" fill="#ff7eb8"/>
              <circle id="Ellipse_250" data-name="Ellipse 250" cx="1.207" cy="1.207" r="1.207" transform="translate(364.854 852.295)" fill="#ff7eb8"/>
            </g>
            <g id="Group_129" data-name="Group 129">
              <path id="Path_216" data-name="Path 216" d="M346.358,866.783H336.3a.977.977,0,1,1,0-1.953h10.062a.977.977,0,1,1,0,1.953Z" fill="#bae1f8"/>
              <path id="Path_217" data-name="Path 217" d="M348.312,862.682H336.3a.977.977,0,0,1,0-1.954h12.016a.977.977,0,0,1,0,1.954Z" fill="#bae1f8"/>
              <path id="Path_218" data-name="Path 218" d="M346.358,858.58H336.3a.977.977,0,1,1,0-1.953h10.062a.977.977,0,1,1,0,1.953Z" fill="#bae1f8"/>
              <path id="Path_219" data-name="Path 219" d="M341.476,854.478H336.3a.977.977,0,1,1,0-1.953h5.18a.977.977,0,0,1,0,1.953Z" fill="#bae1f8"/>
              <path id="Path_220" data-name="Path 220" d="M349.2,827.68H330.856a.977.977,0,0,1,0-1.953H349.2a.977.977,0,0,1,0,1.953Z" fill="#bae1f8"/>
              <path id="Path_221" data-name="Path 221" d="M357.229,843.542h-13.46a.977.977,0,1,1,0-1.953h13.46a.977.977,0,1,1,0,1.953Z" fill="#bae1f8"/>
              <path id="Path_222" data-name="Path 222" d="M347.464,840.14h-3.695a.977.977,0,1,1,0-1.953h3.695a.977.977,0,0,1,0,1.953Z" fill="#bae1f8"/>
            </g>
          </g>
          <path id="Path_223" data-name="Path 223" d="M340.1,838.029a5.544,5.544,0,0,0-6.489,4.537.977.977,0,0,0,1.953,0,1.291,1.291,0,1,1,2.583,0,.977.977,0,0,0,1.953,0,3.234,3.234,0,0,1,0-4.537Zm-3.245-1.291a1.292,1.292,0,1,1-1.291,1.291A1.293,1.293,0,0,1,336.857,836.738Z" fill="#ff7eb8"/>
          <g id="Group_131" data-name="Group 131">
            <circle id="Ellipse_251" data-name="Ellipse 251" cx="8.984" cy="8.984" r="8.984" transform="translate(355.869 822.154)" fill="#3e85a9"/>
            <path id="Path_224" data-name="Path 224" d="M366.126,830.162h-.3v-1.988h1.846a.977.977,0,1,0,0-1.953H365.83v-.491a.976.976,0,1,0-1.953,0v.491h-.3a2.947,2.947,0,1,0,0,5.894h.3V834.1h-1.846a.977.977,0,1,0,0,1.953h1.846v.491a.976.976,0,0,0,1.953,0v-.491h.3a2.948,2.948,0,0,0,0-5.9Zm-2.545,0a.994.994,0,1,1,0-1.988h.3v1.988Zm2.545,3.942h-.3v-1.989h.3a.995.995,0,0,1,0,1.989Z" fill="#fff"/>
          </g>
        </g>
        <path id="Path_225" data-name="Path 225" d="M387.117,836.057a.977.977,0,0,1-.691-1.667l1.953-1.953a.976.976,0,0,1,1.381,1.38l-1.953,1.954A.974.974,0,0,1,387.117,836.057Z" fill="#2a719b"/>
        <path id="Path_226" data-name="Path 226" d="M387.117,878.681a.977.977,0,0,1-.691-1.667l1.953-1.953a.976.976,0,0,1,1.381,1.38l-1.953,1.953A.971.971,0,0,1,387.117,878.681Z" fill="#2a719b"/>
        <g id="Group_133" data-name="Group 133">
          <path id="Path_227" data-name="Path 227" d="M312.976,838.383a.976.976,0,0,1-.977-.977,1.174,1.174,0,0,0-1.172-1.172.977.977,0,0,1,0-1.953A1.173,1.173,0,0,0,312,833.109a.977.977,0,0,1,1.953,0,1.173,1.173,0,0,0,1.172,1.172.977.977,0,1,1,0,1.953,1.174,1.174,0,0,0-1.172,1.172A.976.976,0,0,1,312.976,838.383Z" fill="#ff7eb8"/>
          <path id="Path_228" data-name="Path 228" d="M317.556,848.386a.976.976,0,0,1-.976-.976,1.173,1.173,0,0,0-1.172-1.172.977.977,0,1,1,0-1.953,1.174,1.174,0,0,0,1.172-1.172.977.977,0,1,1,1.953,0,1.173,1.173,0,0,0,1.172,1.172.977.977,0,0,1,0,1.953,1.172,1.172,0,0,0-1.172,1.172A.976.976,0,0,1,317.556,848.386Z" fill="#ff7eb8"/>
          <path id="Path_229" data-name="Path 229" d="M393.024,846.238a.976.976,0,0,1-.976-.977,1.174,1.174,0,0,0-1.172-1.172.977.977,0,1,1,0-1.953,1.174,1.174,0,0,0,1.172-1.172.977.977,0,1,1,1.953,0,1.174,1.174,0,0,0,1.172,1.172.977.977,0,0,1,0,1.953A1.174,1.174,0,0,0,394,845.261.977.977,0,0,1,393.024,846.238Z" fill="#ff7eb8"/>
        </g>
      </g>
    </g>
  </g>
</svg>
