<svg xmlns="http://www.w3.org/2000/svg" xmlns:xlink="http://www.w3.org/1999/xlink" width="100" height="100" viewBox="0 0 100 100">
  <defs>
    <linearGradient id="linear-gradient" x1="-0.023" y1="49.439" x2="0.59" y2="49.794" gradientUnits="objectBoundingBox">
      <stop offset="0" stop-color="#d2deff" stop-opacity="0"/>
      <stop offset="0.459" stop-color="#cee2fd" stop-opacity="0.671"/>
      <stop offset="0.685" stop-color="#c9e7fa"/>
    </linearGradient>
  </defs>
  <g id="Group_121" data-name="Group 121" transform="translate(-633 -800.279)">
    <rect id="Rectangle_54" data-name="Rectangle 54" width="100" height="100" transform="translate(633 800.279)" fill="none"/>
    <g id="Group_120" data-name="Group 120">
      <g id="Group_112" data-name="Group 112">
        <path id="Path_192" data-name="Path 192" d="M721.242,808.866c-31.359-19.115-80.178-1.682-85.858,12.1-7.6,18.436,5.191,21.588,7.567,36.694,1.906,12.121-10,23.73-3.2,34.43,7.4,11.653,31.926,8.727,41.249,3.213,17.066-10.1,8.459-21.878,16.54-36.582,7.7-14.006,22.7-8.325,31.438-19.53,8.3-10.648,2.795-23.906-7.734-30.324Z" fill="url(#linear-gradient)"/>
      </g>
      <g id="Group_119" data-name="Group 119">
        <g id="Group_115" data-name="Group 115">
          <path id="Path_193" data-name="Path 193" d="M697.96,881.117h-2.587V818.17a9.276,9.276,0,0,0-9.275-9.276H680.82a9.276,9.276,0,0,0-9.275,9.276v62.947h-2.587a1.953,1.953,0,0,0-1.953,1.953v7.617a5.86,5.86,0,0,0,5.859,5.86h21.19a5.86,5.86,0,0,0,5.859-5.86V883.07A1.953,1.953,0,0,0,697.96,881.117Z" fill="#bae1f8"/>
          <path id="Path_194" data-name="Path 194" d="M711.036,834.318a9.718,9.718,0,1,0-17.8,4.719l-1.364,3.1a.767.767,0,0,0,1.01,1.011l3.1-1.365a9.715,9.715,0,0,0,15.056-7.464Z" fill="#bae1f8"/>
          <g id="Group_113" data-name="Group 113">
            <path id="Path_195" data-name="Path 195" d="M695.373,814.264v69.97H671.545v-69.97a9.275,9.275,0,0,1,9.275-9.276H686.1A9.275,9.275,0,0,1,695.373,814.264Z" fill="#73aacf"/>
            <path id="Path_196" data-name="Path 196" d="M695.373,825.878v16.033l-2.492,1.1a.767.767,0,0,1-1.01-1.012l1.365-3.1a9.7,9.7,0,0,1,2.137-13.022Z" fill="#2a719b"/>
            <path id="Path_197" data-name="Path 197" d="M689.514,848.456h-1.3V821.764h1.3a.977.977,0,0,0,0-1.954h-1.3V808.764a4.753,4.753,0,0,0-9.506,0v20.291h-1.953a.977.977,0,0,0,0,1.953h1.953v53.226a.978.978,0,0,0,.977.977h7.552a.978.978,0,0,0,.977-.977V850.409h1.3a.977.977,0,0,0,0-1.953Zm-3.256,34.8h-5.6v-15.79h1.3a.977.977,0,0,0,0-1.954h-1.3V860.7h1.3a.977.977,0,0,0,0-1.953h-1.3v-40.18h1.3a.977.977,0,0,0,0-1.953h-1.3v-7.846a2.8,2.8,0,0,1,5.6,0v33.573h-1.823a.977.977,0,0,0,0,1.953h1.823v38.967Z" fill="#226191"/>
            <path id="Path_198" data-name="Path 198" d="M694.054,892.641h-21.19a5.859,5.859,0,0,1-5.859-5.86v-7.617a1.953,1.953,0,0,1,1.953-1.953h29a1.953,1.953,0,0,1,1.953,1.953v7.617A5.86,5.86,0,0,1,694.054,892.641Z" fill="#fff"/>
          </g>
          <g id="Group_114" data-name="Group 114">
            <path id="Path_199" data-name="Path 199" d="M657.092,858.73a.977.977,0,0,1-.977-.976,1.173,1.173,0,0,0-1.172-1.172.976.976,0,0,1,0-1.953,1.173,1.173,0,0,0,1.172-1.172.977.977,0,1,1,1.953,0,1.174,1.174,0,0,0,1.172,1.172.976.976,0,1,1,0,1.953,1.174,1.174,0,0,0-1.172,1.172A.976.976,0,0,1,657.092,858.73Z" fill="#ff7eb8"/>
            <path id="Path_200" data-name="Path 200" d="M707.678,861.725a.977.977,0,0,1-.977-.977,1.173,1.173,0,0,0-1.172-1.172.977.977,0,0,1,0-1.953,1.172,1.172,0,0,0,1.172-1.172.977.977,0,0,1,1.953,0,1.173,1.173,0,0,0,1.172,1.172.977.977,0,1,1,0,1.953,1.174,1.174,0,0,0-1.172,1.172A.977.977,0,0,1,707.678,861.725Z" fill="#ff7eb8"/>
            <path id="Path_201" data-name="Path 201" d="M708.85,847.673a.976.976,0,0,1-.977-.977,1.174,1.174,0,0,0-1.172-1.172.977.977,0,0,1,0-1.953,1.173,1.173,0,0,0,1.172-1.172.977.977,0,0,1,1.953,0A1.173,1.173,0,0,0,711,843.571a.977.977,0,1,1,0,1.953,1.174,1.174,0,0,0-1.172,1.172A.976.976,0,0,1,708.85,847.673Z" fill="#ff7eb8"/>
            <path id="Path_202" data-name="Path 202" d="M658.907,834.989a.976.976,0,0,1-.691-1.667l1.954-1.953a.977.977,0,0,1,1.381,1.381L659.6,834.7A.977.977,0,0,1,658.907,834.989Z" fill="#ff7eb8"/>
          </g>
        </g>
        <g id="Group_118" data-name="Group 118">
          <g id="Group_116" data-name="Group 116">
            <path id="Path_203" data-name="Path 203" d="M711.036,830.411a9.718,9.718,0,1,0-17.8,4.72l-1.364,3.1a.766.766,0,0,0,1.01,1.01l3.1-1.364a9.716,9.716,0,0,0,15.056-7.465Z" fill="#ff7eb8"/>
            <path id="Path_204" data-name="Path 204" d="M708.9,822.21a10.717,10.717,0,0,0-8.264-3.11,10.567,10.567,0,0,0-4.288,1.223v-6.06A10.264,10.264,0,0,0,686.1,804.011H680.82a10.264,10.264,0,0,0-10.252,10.252V815.9h-1.3a.977.977,0,0,0,0,1.953h1.3v17.057h-1.3a.977.977,0,0,0,0,1.954h1.3v3.614h-1.3a.977.977,0,0,0,0,1.953h1.3v25.813h-1.3a.977.977,0,0,0,0,1.953h1.3v6.034h-1.61a2.933,2.933,0,0,0-2.93,2.929v7.617a6.844,6.844,0,0,0,6.836,6.836h21.19a6.844,6.844,0,0,0,6.836-6.836v-7.617a2.933,2.933,0,0,0-2.93-2.929H678.186a.977.977,0,1,0,0,1.953H697.96a.978.978,0,0,1,.977.976v7.617a4.889,4.889,0,0,1-4.883,4.883h-21.19a4.889,4.889,0,0,1-4.883-4.883v-7.617a.978.978,0,0,1,.977-.976h2.587a.978.978,0,0,0,.977-.977V814.263a8.308,8.308,0,0,1,8.3-8.3H686.1a8.309,8.309,0,0,1,8.3,8.3v7.394a10.663,10.663,0,0,0-2.264,13.554l-1.156,2.625a1.743,1.743,0,0,0,2.3,2.3l1.122-.494v30.93a.977.977,0,0,0,1.953,0v-3.1h1.3a.977.977,0,1,0,0-1.954h-1.3V839.229a10.568,10.568,0,0,0,4.98,1.236c.311,0,.625-.013.94-.04A10.693,10.693,0,0,0,708.9,822.21Zm1.161,8.139a8.77,8.77,0,0,1-7.957,8.13,8.678,8.678,0,0,1-5.585-1.417.976.976,0,0,0-.934-.08l-2.6,1.147,1.147-2.6a.976.976,0,0,0-.08-.933,8.679,8.679,0,0,1-1.417-5.585,8.741,8.741,0,0,1,17.43,1.342Z" fill="#014073"/>
          </g>
          <g id="Group_117" data-name="Group 117">
            <circle id="Ellipse_243" data-name="Ellipse 243" cx="1.092" cy="1.092" r="1.092" transform="translate(696.533 828.565)" fill="#fff"/>
            <circle id="Ellipse_244" data-name="Ellipse 244" cx="1.092" cy="1.092" r="1.092" transform="translate(700.422 828.565)" fill="#fff"/>
            <circle id="Ellipse_245" data-name="Ellipse 245" cx="1.092" cy="1.092" r="1.092" transform="translate(704.311 828.565)" fill="#fff"/>
          </g>
        </g>
        <path id="Path_205" data-name="Path 205" d="M663.1,824.937a.977.977,0,0,1-.691-1.667l1.953-1.953a.977.977,0,0,1,1.381,1.381l-1.953,1.953A.971.971,0,0,1,663.1,824.937Z" fill="#2a719b"/>
      </g>
    </g>
  </g>
</svg>
