<svg xmlns="http://www.w3.org/2000/svg" xmlns:xlink="http://www.w3.org/1999/xlink" width="100" height="100" viewBox="0 0 100 100">
  <defs>
    <linearGradient id="linear-gradient" x1="0.15" y1="55.75" x2="0.841" y2="56.69" gradientUnits="objectBoundingBox">
      <stop offset="0" stop-color="#d2deff" stop-opacity="0"/>
      <stop offset="0.459" stop-color="#cee2fd" stop-opacity="0.671"/>
      <stop offset="0.685" stop-color="#c9e7fa"/>
    </linearGradient>
  </defs>
  <g id="Group_111" data-name="Group 111" transform="translate(-963 -800.279)">
    <rect id="Rectangle_52" data-name="Rectangle 52" width="100" height="100" transform="translate(963 800.279)" fill="none"/>
    <g id="Group_110" data-name="Group 110">
      <g id="Group_96" data-name="Group 96">
        <path id="Path_170" data-name="Path 170" d="M963.031,863.562c-1.56,35.306,56.825,33.152,82.956,26.863,16.257-3.912,17.268-11.724,16.975-28.388-.19-10.741.678-39.176-6.31-48.126-10.733-13.747-20.35-5.125-33.642-.637-17.05,5.756-23.694-4.521-39.916-4.215C959.311,809.508,963.811,845.9,963.031,863.562Z" fill="url(#linear-gradient)"/>
      </g>
      <g id="Group_109" data-name="Group 109">
        <path id="Path_171" data-name="Path 171" d="M1042.894,851.932l-14.651-6.075,14.651-6.075a1.971,1.971,0,0,0,0-3.642l-29.7-12.316a1.976,1.976,0,0,0-1.51,0l-29.7,12.316a1.972,1.972,0,0,0,0,3.642l14.652,6.075-14.652,6.075a1.972,1.972,0,0,0,0,3.642l14.652,6.075-14.652,6.075a1.972,1.972,0,0,0,0,3.642l29.7,12.316a1.975,1.975,0,0,0,1.51,0l29.7-12.316a1.971,1.971,0,0,0,0-3.642l-14.651-6.075,14.651-6.075A1.971,1.971,0,0,0,1042.894,851.932Z" fill="#bae1f8"/>
        <g id="Group_97" data-name="Group 97">
          <path id="Path_172" data-name="Path 172" d="M974.948,860.359l-.919.919V821.816a.986.986,0,0,0-1.972,0v39.462l-.919-.919a.986.986,0,0,0-1.394,1.394l2.6,2.6a.987.987,0,0,0,1.394,0l2.6-2.6a.986.986,0,0,0-1.394-1.394Z" fill="#bae1f8"/>
          <path id="Path_173" data-name="Path 173" d="M1055.13,845.753l-2.6-2.6a.985.985,0,0,0-1.394,0l-2.6,2.6a.986.986,0,0,0,1.394,1.394l.919-.919v39.461a.986.986,0,0,0,1.972,0V846.228l.919.919a.986.986,0,0,0,1.394-1.394Z" fill="#bae1f8"/>
        </g>
        <g id="Group_108" data-name="Group 108">
          <g id="Group_106" data-name="Group 106">
            <g id="Group_98" data-name="Group 98">
              <path id="Path_174" data-name="Path 174" d="M1042.894,867.423l-29.7,12.315a1.965,1.965,0,0,1-1.51,0l-29.7-12.315a1.971,1.971,0,0,1,0-3.642L992,859.628l19.682-8.162a1.966,1.966,0,0,1,1.51,0l19.684,8.162,10.019,4.153A1.971,1.971,0,0,1,1042.894,867.423Z" fill="#73aacf"/>
              <path id="Path_175" data-name="Path 175" d="M1032.875,859.628l-18.324,7.6a5.53,5.53,0,0,1-4.228,0L992,859.628l19.682-8.162a1.966,1.966,0,0,1,1.51,0Z" fill="#2d719b"/>
              <path id="Path_176" data-name="Path 176" d="M1031.844,865.6l-19.408,8.047L993.028,865.6l6.691-2.774,12.717-5.273,12.717,5.273Z" fill="#fff"/>
              <path id="Path_177" data-name="Path 177" d="M1025.153,862.829l-10.6,4.4a5.53,5.53,0,0,1-4.228,0l-10.6-4.4,12.717-5.273Z" fill="#bae1f8"/>
            </g>
            <path id="Path_178" data-name="Path 178" d="M1042.894,851.632l-29.7,12.315a1.966,1.966,0,0,1-1.51,0l-29.7-12.315a1.972,1.972,0,0,1,0-3.643L992,843.835l19.682-8.161a1.957,1.957,0,0,1,1.51,0l19.684,8.161,10.019,4.154a1.972,1.972,0,0,1,0,3.643Z" fill="#73aacf"/>
            <path id="Path_179" data-name="Path 179" d="M1032.875,843.835l-18.324,7.6a5.53,5.53,0,0,1-4.228,0L992,843.835l19.682-8.161a1.957,1.957,0,0,1,1.51,0Z" fill="#2d719b"/>
            <path id="Path_180" data-name="Path 180" d="M1031.844,849.81l-19.408,8.047-19.408-8.047,6.691-2.773,12.717-5.274,12.717,5.274Z" fill="#fff"/>
            <path id="Path_181" data-name="Path 181" d="M1025.153,847.037l-10.6,4.4a5.53,5.53,0,0,1-4.228,0l-10.6-4.4,12.717-5.274Z" fill="#bae1f8"/>
            <g id="Group_99" data-name="Group 99">
              <path id="Path_182" data-name="Path 182" d="M1011.682,819.882l-29.7,12.315a1.972,1.972,0,0,0,0,3.642l29.7,12.316a1.976,1.976,0,0,0,1.51,0l29.7-12.316a1.971,1.971,0,0,0,0-3.642l-29.7-12.315a1.966,1.966,0,0,0-1.51,0Z" fill="#73aacf"/>
              <path id="Path_183" data-name="Path 183" d="M993.029,834.018l19.408-8.047,19.408,8.047-19.408,8.047Z" fill="#fff"/>
            </g>
            <g id="Group_105" data-name="Group 105">
              <g id="Group_104" data-name="Group 104">
                <g id="Group_101" data-name="Group 101">
                  <g id="Group_100" data-name="Group 100">
                    <path id="Path_184" data-name="Path 184" d="M1045.1,849.81a2.911,2.911,0,0,0-1.825-2.732l-12.456-5.163,12.457-5.165a2.957,2.957,0,0,0,0-5.463l-29.7-12.316a2.936,2.936,0,0,0-2.265,0l-29.7,12.316a2.957,2.957,0,0,0,0,5.463l12.456,5.165L981.6,847.078a2.957,2.957,0,0,0,0,5.464l12.454,5.164L981.6,862.87a2.957,2.957,0,0,0,0,5.463l29.7,12.316a2.941,2.941,0,0,0,2.266,0l7.853-3.257a.986.986,0,0,0-.755-1.821l-7.853,3.257a.981.981,0,0,1-.756,0l-29.7-12.315a.986.986,0,0,1,0-1.821l14.273-5.918,14.673,6.084a2.938,2.938,0,0,0,2.265,0l14.675-6.084,14.273,5.918a.986.986,0,0,1,0,1.821L1026.875,873a.986.986,0,0,0,.755,1.821l15.641-6.485a2.957,2.957,0,0,0,0-5.463l-12.455-5.164,12.455-5.164a2.913,2.913,0,0,0,1.825-2.733Zm-2.58.911-29.7,12.316a.972.972,0,0,1-.754,0l-29.7-12.315a.986.986,0,0,1,0-1.822l14.651-6.074a.986.986,0,0,0,0-1.821l-14.652-6.075a.986.986,0,0,1,0-1.821l29.7-12.316a.976.976,0,0,1,.755,0l29.7,12.316a.986.986,0,0,1,0,1.821l-29.7,12.315a.979.979,0,0,1-.755,0l-9.512-3.944a.986.986,0,1,0-.755,1.821l9.512,3.944a2.936,2.936,0,0,0,2.265,0l14.673-6.083,14.275,5.918a.985.985,0,0,1,0,1.821Z" fill="#014073"/>
                  </g>
                </g>
                <g id="Group_102" data-name="Group 102">
                  <path id="Path_185" data-name="Path 185" d="M974.948,856.416l-.919.919V817.874a.986.986,0,1,0-1.972,0v39.461l-.919-.919a.986.986,0,0,0-1.394,1.394l2.6,2.6a.985.985,0,0,0,1.394,0l2.6-2.6a.986.986,0,0,0-1.394-1.394Z" fill="#014073"/>
                </g>
                <g id="Group_103" data-name="Group 103">
                  <path id="Path_186" data-name="Path 186" d="M1055.13,841.81l-2.6-2.6a.987.987,0,0,0-1.394,0l-2.6,2.6a.986.986,0,0,0,1.394,1.394l.919-.919v39.462a.986.986,0,0,0,1.972,0V842.285l.919.92a.986.986,0,0,0,1.394-1.4Z" fill="#014073"/>
                </g>
              </g>
            </g>
          </g>
          <g id="Group_107" data-name="Group 107">
            <path id="Path_187" data-name="Path 187" d="M1047.654,826.828a.986.986,0,0,1-.986-.985,1.183,1.183,0,0,0-1.182-1.183.986.986,0,0,1,0-1.972,1.183,1.183,0,0,0,1.182-1.182.986.986,0,0,1,1.972,0,1.183,1.183,0,0,0,1.183,1.182.986.986,0,0,1,0,1.972,1.183,1.183,0,0,0-1.183,1.183A.985.985,0,0,1,1047.654,826.828Z" fill="#ff7eb8"/>
            <path id="Path_188" data-name="Path 188" d="M992.671,818.859a.986.986,0,0,1-.986-.985,1.183,1.183,0,0,0-1.182-1.183.986.986,0,1,1,0-1.971,1.184,1.184,0,0,0,1.182-1.183.986.986,0,0,1,1.972,0,1.184,1.184,0,0,0,1.183,1.183.986.986,0,0,1,0,1.971,1.184,1.184,0,0,0-1.183,1.183A.986.986,0,0,1,992.671,818.859Z" fill="#ff7eb8"/>
            <path id="Path_189" data-name="Path 189" d="M984.92,881.141a.987.987,0,0,1-.986-.986,1.184,1.184,0,0,0-1.182-1.183.986.986,0,1,1,0-1.971,1.184,1.184,0,0,0,1.182-1.183.986.986,0,1,1,1.972,0A1.184,1.184,0,0,0,987.089,877a.986.986,0,0,1,0,1.971,1.184,1.184,0,0,0-1.183,1.183A.987.987,0,0,1,984.92,881.141Z" fill="#ff7eb8"/>
          </g>
          <path id="Path_190" data-name="Path 190" d="M1039.1,820.831a.986.986,0,0,1-.7-1.683l1.971-1.971a.986.986,0,0,1,1.394,1.394l-1.971,1.971A.986.986,0,0,1,1039.1,820.831Z" fill="#2a719b"/>
          <path id="Path_191" data-name="Path 191" d="M1023.79,887a.986.986,0,0,1-.7-1.683l1.971-1.971a.986.986,0,0,1,1.394,1.394l-1.971,1.971A.982.982,0,0,1,1023.79,887Z" fill="#2a719b"/>
        </g>
      </g>
    </g>
  </g>
</svg>
