<svg xmlns="http://www.w3.org/2000/svg" xmlns:xlink="http://www.w3.org/1999/xlink" width="100" height="101.638" viewBox="0 0 100 101.638">
  <defs>
    <linearGradient id="linear-gradient" x1="0.054" y1="49.237" x2="0.985" y2="49.858" gradientUnits="objectBoundingBox">
      <stop offset="0" stop-color="#d2deff" stop-opacity="0"/>
      <stop offset="0.459" stop-color="#cee2fd" stop-opacity="0.671"/>
      <stop offset="0.685" stop-color="#c9e7fa"/>
    </linearGradient>
  </defs>
  <g id="Group_160" data-name="Group 160" transform="translate(-303 -1128.661)">
    <rect id="Rectangle_63" data-name="Rectangle 63" width="100" height="100" transform="translate(303 1130.299)" fill="none"/>
    <g id="Group_158" data-name="Group 158">
      <g id="Group_145" data-name="Group 145">
        <path id="Path_280" data-name="Path 280" d="M303.956,1193.631c3.408,33.764,57.113,32.645,82.188,26.615,16.108-3.874,17.109-11.616,16.818-28.126-.187-10.641.672-38.813-6.251-47.68-10.634-13.619-20.161-5.077-33.331-.632-16.892,5.7-23.474-4.478-39.546-4.175-23.563.445-21.637,36.572-19.878,54Z" fill="url(#linear-gradient)"/>
      </g>
    </g>
    <g id="Group_159" data-name="Group 159">
      <path id="Path_304" data-name="Path 304" d="M331.86,1162.184l3.059,3.059a34.074,34.074,0,0,1,12.458-5.162v-4.324a2.746,2.746,0,0,1,2.747-2.745h3.122V1150.1a1.134,1.134,0,0,0-1.135-1.135h-2.624a13.247,13.247,0,0,0-1.891-4.559l1.857-1.858a1.135,1.135,0,0,0,0-1.606l-2.267-2.266a1.135,1.135,0,0,0-1.606,0l-1.857,1.857a13.276,13.276,0,0,0-4.559-1.893v-2.623a1.134,1.134,0,0,0-1.135-1.134h-3.206a1.135,1.135,0,0,0-1.136,1.134v2.624a13.272,13.272,0,0,0-4.558,1.892l-1.857-1.857a1.135,1.135,0,0,0-1.606,0l-2.267,2.267a1.135,1.135,0,0,0,0,1.606l1.857,1.857a13.248,13.248,0,0,0-1.892,4.559h-2.623a1.134,1.134,0,0,0-1.135,1.135v3.205a1.136,1.136,0,0,0,1.135,1.137h2.623a13.251,13.251,0,0,0,1.892,4.558l-1.857,1.858a1.135,1.135,0,0,0,0,1.606l2.149,2.149,2.428-2.429a2.749,2.749,0,0,1,3.884,0" fill="#ff7eb8"/>
      <path id="Path_305" data-name="Path 305" d="M336.426,1144.622a7.081,7.081,0,1,1-7.08,7.08,7.081,7.081,0,0,1,7.08-7.08" fill="#ecf4f7"/>
      <path id="Path_306" data-name="Path 306" d="M316.067,1200.314h4.324a34.016,34.016,0,0,0,3.964,10.537h59.292a34.014,34.014,0,0,0,3.963-10.537h4.324a2.747,2.747,0,0,0,2.747-2.747v-7.753a2.746,2.746,0,0,0-2.747-2.746H387.61a34.053,34.053,0,0,0-5.162-12.459l3.059-3.058a2.747,2.747,0,0,0,0-3.884l-5.482-5.482a2.746,2.746,0,0,0-3.884,0l-3.059,3.058a34.057,34.057,0,0,0-12.458-5.162v-4.324a2.747,2.747,0,0,0-2.747-2.746h-7.753a2.746,2.746,0,0,0-2.746,2.746v4.324a34.062,34.062,0,0,0-12.459,5.162l-3.059-3.058a2.744,2.744,0,0,0-3.883,0l-5.483,5.482a2.747,2.747,0,0,0,0,3.884l3.059,3.058a34.071,34.071,0,0,0-5.162,12.459h-4.324a2.745,2.745,0,0,0-2.746,2.746v7.753a2.746,2.746,0,0,0,2.746,2.747" fill="#73aacf"/>
      <path id="Path_307" data-name="Path 307" d="M374.338,1210.851a26.611,26.611,0,1,0-40.675,0Z" fill="#a9d2ea"/>
      <path id="Path_308" data-name="Path 308" d="M345.817,1197.651a2.119,2.119,0,0,1-1.19-.366l-9.789-6.626a2.127,2.127,0,0,1,0-3.522l9.789-6.626a2.126,2.126,0,0,1,2.384,3.522l-7.187,4.865,7.187,4.865a2.127,2.127,0,0,1-1.194,3.888" fill="#ecf4f7"/>
      <path id="Path_309" data-name="Path 309" d="M362.183,1197.651a2.127,2.127,0,0,1-1.194-3.888l7.187-4.865-7.187-4.865a2.126,2.126,0,0,1,2.384-3.522l9.789,6.626a2.127,2.127,0,0,1,0,3.522l-9.789,6.626a2.119,2.119,0,0,1-1.19.366" fill="#ecf4f7"/>
      <path id="Path_310" data-name="Path 310" d="M352.966,1201.535a2.053,2.053,0,0,1-.206-.009,2.127,2.127,0,0,1-1.914-2.32l2.075-21.634a2.127,2.127,0,0,1,4.234.405l-2.075,21.636a2.125,2.125,0,0,1-2.114,1.922" fill="#ecf4f7"/>
      <path id="Path_311" data-name="Path 311" d="M351.991,1131.29a.83.83,0,0,1,.83-.83h.968v-.969a.831.831,0,0,1,1.661,0v.969h.968a.83.83,0,0,1,0,1.66h-.968v.969a.831.831,0,0,1-1.661,0v-.969h-.968a.83.83,0,0,1-.83-.83m8.646,10.362h.968v.968a.83.83,0,0,0,1.661,0v-.968h.968a.831.831,0,0,0,0-1.661h-.968v-.968a.83.83,0,0,0-1.661,0v.968h-.968a.831.831,0,0,0,0,1.661m-16.3,10.051a7.91,7.91,0,1,1-7.91-7.911,7.919,7.919,0,0,1,7.91,7.911m-1.66,0a6.25,6.25,0,1,0-6.25,6.25,6.257,6.257,0,0,0,6.25-6.25m-28.2,58.318H313.32a.831.831,0,0,0,0,1.661h1.158a.831.831,0,1,0,0-1.661m80.2,0h-1.159a.831.831,0,0,0,0,1.661h1.159a.831.831,0,0,0,0-1.661m-73.939-54.75H322.7a14.064,14.064,0,0,0,1.5,3.608l-1.392,1.391a1.969,1.969,0,0,0,0,2.78.83.83,0,1,0,1.174-1.174.308.308,0,0,1,0-.432l1.858-1.857a.831.831,0,0,0,.107-1.042,12.4,12.4,0,0,1-1.773-4.273.831.831,0,0,0-.813-.661h-2.623a.306.306,0,0,1-.306-.3V1150.1a.306.306,0,0,1,.306-.306h2.623a.83.83,0,0,0,.813-.66,12.4,12.4,0,0,1,1.774-4.274.831.831,0,0,0-.108-1.042l-1.857-1.857a.307.307,0,0,1,0-.432l2.268-2.267a.3.3,0,0,1,.431,0l1.857,1.857a.831.831,0,0,0,1.042.108,12.358,12.358,0,0,1,4.274-1.774.83.83,0,0,0,.661-.813v-2.623a.306.306,0,0,1,.3-.306h3.206a.306.306,0,0,1,.305.306v2.623a.83.83,0,0,0,.661.813,12.391,12.391,0,0,1,4.273,1.774.832.832,0,0,0,1.042-.108l1.858-1.857a.3.3,0,0,1,.432,0l2.266,2.266a.306.306,0,0,1,0,.432l-1.857,1.858a.83.83,0,0,0-.108,1.041,12.377,12.377,0,0,1,1.774,4.274.829.829,0,0,0,.813.66h2.623a.306.306,0,0,1,.3.306.831.831,0,0,0,1.661,0,1.968,1.968,0,0,0-1.966-1.966h-1.965a14.032,14.032,0,0,0-1.5-3.607l1.391-1.392a1.967,1.967,0,0,0,0-2.78l-2.267-2.266a1.965,1.965,0,0,0-2.779,0l-1.393,1.392a14.014,14.014,0,0,0-3.606-1.5v-1.964a1.968,1.968,0,0,0-1.966-1.966h-3.206a1.968,1.968,0,0,0-1.966,1.966v1.964a14.041,14.041,0,0,0-3.608,1.5l-1.391-1.391a1.966,1.966,0,0,0-2.78,0l-2.267,2.267a1.969,1.969,0,0,0,0,2.78l1.392,1.392a14.057,14.057,0,0,0-1.5,3.607h-1.964a1.968,1.968,0,0,0-1.966,1.966v3.206a1.967,1.967,0,0,0,1.966,1.965m55.392,53.217a.831.831,0,0,0,1.144-.263,27.441,27.441,0,1,0-46.554,0,.83.83,0,1,0,1.407-.881,25.781,25.781,0,1,1,43.74,0,.832.832,0,0,0,.263,1.145m15.8-22.25h-3.648a34.689,34.689,0,0,0-4.773-11.52l2.58-2.58a3.58,3.58,0,0,0,0-5.058l-5.482-5.482a3.58,3.58,0,0,0-5.058,0l-2.58,2.58a34.687,34.687,0,0,0-11.52-4.774v-3.647a3.58,3.58,0,0,0-3.577-3.576h-7.753a3.58,3.58,0,0,0-3.576,3.576v3.647a34.67,34.67,0,0,0-11.52,4.774l-2.58-2.581a3.581,3.581,0,0,0-5.058,0l-5.482,5.482a3.58,3.58,0,0,0,0,5.058l2.58,2.58a34.691,34.691,0,0,0-4.774,11.52h-3.647a3.58,3.58,0,0,0-3.576,3.576v7.753a3.58,3.58,0,0,0,3.576,3.577h3.648a34.912,34.912,0,0,0,2.306,6.982.83.83,0,1,0,1.513-.684,33.209,33.209,0,0,1-2.328-7.288.83.83,0,0,0-.815-.67h-4.324a1.919,1.919,0,0,1-1.916-1.917v-7.753a1.919,1.919,0,0,1,1.916-1.916h4.324a.83.83,0,0,0,.815-.67,33.088,33.088,0,0,1,5.036-12.156.83.83,0,0,0-.1-1.05l-3.059-3.058a1.919,1.919,0,0,1,0-2.71l5.482-5.482a1.92,1.92,0,0,1,2.71,0l3.058,3.059a.83.83,0,0,0,1.051.1,33.1,33.1,0,0,1,12.155-5.037.829.829,0,0,0,.67-.814v-4.324a1.919,1.919,0,0,1,1.916-1.916h7.753a1.918,1.918,0,0,1,1.916,1.916v4.324a.83.83,0,0,0,.671.814,33.1,33.1,0,0,1,12.155,5.037.829.829,0,0,0,1.05-.1l3.059-3.058a1.917,1.917,0,0,1,2.709,0l5.483,5.482a1.919,1.919,0,0,1,0,2.71l-3.059,3.058a.83.83,0,0,0-.1,1.05,33.1,33.1,0,0,1,5.036,12.156.83.83,0,0,0,.814.67h4.325a1.919,1.919,0,0,1,1.916,1.916v7.753a1.919,1.919,0,0,1-1.916,1.917h-4.325a.829.829,0,0,0-.814.67,33.209,33.209,0,0,1-2.328,7.288.83.83,0,0,0,1.513.684,34.827,34.827,0,0,0,2.306-6.982h3.648a3.58,3.58,0,0,0,3.576-3.577v-7.753a3.58,3.58,0,0,0-3.576-3.576m-46.117,12.243a2.946,2.946,0,0,1-1.655-.508l-9.79-6.626a2.957,2.957,0,0,1,0-4.9l9.79-6.626a2.956,2.956,0,1,1,3.314,4.9L341.3,1188.9l6.171,4.178a2.956,2.956,0,0,1-1.659,5.4m.729-4.03-7.188-4.866a.831.831,0,0,1,0-1.375l7.188-4.864a1.3,1.3,0,0,0-.73-2.371,1.282,1.282,0,0,0-.723.223l-9.789,6.626a1.3,1.3,0,0,0,0,2.148l9.788,6.625a1.3,1.3,0,1,0,1.454-2.146m27.081-3.1-9.789,6.626a2.957,2.957,0,0,1-3.315-4.9l6.172-4.177-6.172-4.177a2.957,2.957,0,0,1,3.315-4.9l9.789,6.625a2.957,2.957,0,0,1,0,4.9m-.361-2.449a1.293,1.293,0,0,0-.57-1.073l-9.788-6.626a1.29,1.29,0,0,0-.724-.223,1.238,1.238,0,0,0-.249.024,1.3,1.3,0,0,0-.48,2.346l7.187,4.864a.832.832,0,0,1,0,1.376l-7.187,4.865a1.3,1.3,0,1,0,1.453,2.147l9.789-6.626a1.3,1.3,0,0,0,.569-1.074m-17.36,10.793a2.944,2.944,0,0,1-2.941,2.675c-.094,0-.19-.005-.285-.014a2.957,2.957,0,0,1-2.661-3.225l2.075-21.635a2.956,2.956,0,1,1,5.886.564Zm.422-21.793a1.295,1.295,0,0,0-1.167-1.414,1.106,1.106,0,0,0-.128-.006,1.294,1.294,0,0,0-1.286,1.172l-2.075,21.636a1.3,1.3,0,0,0,2.581.247Zm33.723,32.123h-72.1a.831.831,0,0,0,0,1.661h72.1a.831.831,0,0,0,0-1.661m-45.685-4.584a.83.83,0,0,0,0,1.66h1.158a.83.83,0,1,0,0-1.66Zm4.527,1.66h1.159a.83.83,0,0,0,0-1.66h-1.159a.83.83,0,1,0,0,1.66m4.528-1.66a.83.83,0,0,0,0,1.66h1.159a.83.83,0,1,0,0-1.66Zm4.527,1.66h1.159a.83.83,0,1,0,0-1.66h-1.159a.83.83,0,0,0,0,1.66m4.528-1.66a.83.83,0,1,0,0,1.66h1.159a.83.83,0,0,0,0-1.66Z" fill="#014073"/>
    </g>
  </g>
</svg>
