<svg xmlns="http://www.w3.org/2000/svg" width="80" height="80" viewBox="0 0 80 80">
  <g id="Group_171" data-name="Group 171" transform="translate(-265.776 -2296.92)">
    <rect id="Rectangle_73" data-name="Rectangle 73" width="80" height="80" transform="translate(265.776 2296.92)" fill="none"/>
    <g id="Group_170" data-name="Group 170">
      <g id="Group_169" data-name="Group 169">
        <path id="Path_318" data-name="Path 318" d="M329.7,2340.429a1.335,1.335,0,0,0-1.779.61,20.491,20.491,0,0,1-1.171,2.066,1.33,1.33,0,0,0,1.115,2.051h.005a1.325,1.325,0,0,0,1.119-.61,22.908,22.908,0,0,0,1.324-2.338,1.328,1.328,0,0,0-.613-1.779Z" fill="#484ce6"/>
        <path id="Path_319" data-name="Path 319" d="M309.7,2306.956c-.457-.028-.9-.036-1.352-.036a24.562,24.562,0,0,0-24.237,21.114l-5.029,10.123a3.5,3.5,0,0,0,3.135,5.06h2.354v10.112a4.694,4.694,0,0,0,4.678,4.686h2.515v7.574a1.332,1.332,0,0,0,1.33,1.331h27.668a1.332,1.332,0,0,0,1.327-1.331v-3.508a25.862,25.862,0,0,1,.555-5.306,1.33,1.33,0,0,0-2.613-.5,28.437,28.437,0,0,0-.6,5.8v2.178H294.425v-7.574a1.332,1.332,0,0,0-1.331-1.33h-3.843a2.028,2.028,0,0,1-2.019-2.026v-11.443a1.332,1.332,0,0,0-1.33-1.33h-3.685a.853.853,0,0,1-.374-.087.841.841,0,0,1-.378-1.127l5.125-10.317a1.322,1.322,0,0,0,.133-.428,21.867,21.867,0,0,1,21.625-19.017c.4,0,.792.008,1.2.032a21.968,21.968,0,0,1,3.166.409,21.823,21.823,0,0,1,17.01,25.8,1.331,1.331,0,0,0,1.074,1.544,1.33,1.33,0,0,0,1.542-1.063,24.482,24.482,0,0,0-22.642-29.344Z" fill="#484ce6"/>
        <path id="Path_320" data-name="Path 320" d="M324.1,2347.5a1.338,1.338,0,0,0-.874.571,20.84,20.84,0,0,0-1.234,2.324,1.3,1.3,0,0,0-.119.547,1.331,1.331,0,0,0,1.33,1.332h0a1.334,1.334,0,0,0,1.208-.784,18.274,18.274,0,0,1,1.09-2.05,1.33,1.33,0,0,0-1.4-1.94Z" fill="#484ce6"/>
      </g>
      <path id="Path_321" data-name="Path 321" d="M316.669,2329.007a1.331,1.331,0,0,0,2.243-.967v-5.833a2.245,2.245,0,0,0-2.242-2.239H299.938a2.247,2.247,0,0,0-2.238,2.239v16.728a2.245,2.245,0,0,0,2.242,2.238h3.707a4.65,4.65,0,0,0-.09.914,4.6,4.6,0,0,0,4.6,4.595h.008a4.861,4.861,0,0,0,.575-.036,4.594,4.594,0,0,0,3.93-5.473h4a2.244,2.244,0,0,0,2.238-2.239v-6.121a1.33,1.33,0,0,0-2.23-.982,2,2,0,0,1-2.79-.118,1.941,1.941,0,0,1,2.777-2.706Zm-5.923,1.148a4.579,4.579,0,0,0,1.164,3.331,4.682,4.682,0,0,0,4.341,1.442v3.586h-5.7a1.331,1.331,0,0,0-.97,2.239,1.942,1.942,0,0,1-1.168,3.254,1.914,1.914,0,0,1-1.535-.473,1.948,1.948,0,0,1-.658-1.456,1.909,1.909,0,0,1,.527-1.322,1.33,1.33,0,0,0-.968-2.243h-5.412v-15.884h15.887v3.278a4.6,4.6,0,0,0-5.505,4.248Z" fill="#e743af"/>
    </g>
  </g>
</svg>
