<svg xmlns="http://www.w3.org/2000/svg" width="80" height="80" viewBox="0 0 80 80">
  <g id="Group_166" data-name="Group 166" transform="translate(-885.92 -2005.328)">
    <g id="Group_165" data-name="Group 165">
      <path id="Path_9" data-name="Path 9" d="M933.611,2059.582H907.517a5.226,5.226,0,0,1-5.219-5.219v-33.052a3.486,3.486,0,0,1,3.483-3.483h24.351a3.483,3.483,0,0,1,3.481,3.481l.007,1.738a3.481,3.481,0,0,1,3.473,3.475V2056.1A3.484,3.484,0,0,1,933.611,2059.582Zm-29.573-5.219a3.482,3.482,0,0,0,3.479,3.479h26.094a1.743,1.743,0,0,0,1.742-1.741v-29.579a1.737,1.737,0,0,0-1.733-1.735h-.007V2047.4a3.487,3.487,0,0,1-3.485,3.485H907.517a3.483,3.483,0,0,0-3.479,3.48Zm1.743-34.8a1.746,1.746,0,0,0-1.743,1.743v29.163a5.211,5.211,0,0,1,3.479-1.331h22.612a1.747,1.747,0,0,0,1.745-1.745v-26.089a1.744,1.744,0,0,0-1.742-1.741Z" fill="#484ce6"/>
      <rect id="Rectangle_4" data-name="Rectangle 4" width="13.905" height="1.738" transform="translate(911.054 2033.471)" fill="#484ce6"/>
      <rect id="Rectangle_5" data-name="Rectangle 5" width="13.905" height="1.651" transform="translate(911.054 2028.344)" fill="#484ce6"/>
      <path id="Path_10" data-name="Path 10" d="M931.706,2055.232H907.517v-1.739h24.189a.167.167,0,0,0,.167-.167v-6.284h1.74v6.284A1.906,1.906,0,0,1,931.706,2055.232Z" fill="#484ce6"/>
      <path id="Path_28" data-name="Path 28" d="M919.014,2038.639l2.54,1.686,5.228-2.052.635-3.322H932.4v3.322l2.833.684,3.077,1.661,2.736-1.979,3.029,2.565.684.782L943,2044.624l.879,2.149.88,3.078,3.028.586.587,1.27v3.224l-.342.977-3.029.586-1.416,3.517-.831,1.222,1.319,1.905.44,1.466-3.469,3.175-2.735-1.515-2.589.929-2.638.83-.44,3.322h-5.227l-.88-3.322-2.345-1.124-2.2-.635h-1.026l-1.319,1.515h-.635l-3.713-3.371v-.879l1.71-1.857-.733-2.735-1.27-2.638-2.833-.391-.586-.391v-5.08h2.98l1.905-4.348.537-1.222-2-2.882,2.785-2.784,1.221-.562" fill="#fff"/>
      <path id="Path_316" data-name="Path 316" d="M947.938,2049.155l-2.134-.286a16.283,16.283,0,0,0-1.585-3.815l1.311-1.713a1.86,1.86,0,0,0-.163-2.431l-3.142-3.144a1.889,1.889,0,0,0-2.433-.161l-1.711,1.31a16.25,16.25,0,0,0-3.816-1.584l-.286-2.138a1.863,1.863,0,0,0-1.833-1.6H927.7a1.862,1.862,0,0,0-1.832,1.605l-.285,2.135a16.221,16.221,0,0,0-3.815,1.583l-1.713-1.312a1.891,1.891,0,0,0-2.431.163l-3.143,3.144a1.862,1.862,0,0,0-.161,2.432l1.309,1.711a16.322,16.322,0,0,0-1.584,3.816l-2.137.286a1.862,1.862,0,0,0-1.6,1.834v4.446a1.862,1.862,0,0,0,1.6,1.832l2.134.284a16.25,16.25,0,0,0,1.584,3.817l-1.31,1.713a1.861,1.861,0,0,0,.162,2.431l3.142,3.142a1.888,1.888,0,0,0,2.432.161l1.712-1.31a16.266,16.266,0,0,0,3.816,1.585l.286,2.137a1.862,1.862,0,0,0,1.833,1.6h4.447a1.864,1.864,0,0,0,1.83-1.6l.285-2.136a16.294,16.294,0,0,0,3.817-1.583l1.713,1.31a1.891,1.891,0,0,0,2.43-.162l3.144-3.144a1.864,1.864,0,0,0,.161-2.432l-1.31-1.711a16.258,16.258,0,0,0,1.584-3.817l2.136-.286a1.861,1.861,0,0,0,1.6-1.833v-4.448A1.862,1.862,0,0,0,947.938,2049.155Zm-4.439,6.965a13.672,13.672,0,0,1-1.926,4.636,1.243,1.243,0,0,0,.108,1.53l1.4,1.863-2.244,2.225-1.747-1.334a1.318,1.318,0,0,0-1.624-.179,13.687,13.687,0,0,1-4.635,1.925,1.285,1.285,0,0,0-1.006,1.085l-.333,2.378-3.16-.014-.315-2.359a1.292,1.292,0,0,0-1.008-1.09,13.685,13.685,0,0,1-4.635-1.926,1.28,1.28,0,0,0-.7-.206,1.188,1.188,0,0,0-.83.313l-1.861,1.4-2.225-2.245,1.331-1.744a1.294,1.294,0,0,0,.181-1.625,13.649,13.649,0,0,1-1.925-4.632,1.291,1.291,0,0,0-1.085-1.01l-2.379-.332.014-3.158,2.36-.314a1.294,1.294,0,0,0,1.09-1.01,13.67,13.67,0,0,1,1.926-4.636,1.243,1.243,0,0,0-.108-1.53l-1.4-1.861,2.244-2.225,1.744,1.332a1.317,1.317,0,0,0,1.625.179,13.717,13.717,0,0,1,4.636-1.925,1.286,1.286,0,0,0,1.006-1.084l.333-2.379,3.16.014.315,2.36a1.292,1.292,0,0,0,1.008,1.09,13.683,13.683,0,0,1,4.638,1.926,1.332,1.332,0,0,0,1.53-.108l1.858-1.4,2.224,2.245-1.33,1.745a1.291,1.291,0,0,0-.18,1.624,13.672,13.672,0,0,1,1.924,4.634,1.289,1.289,0,0,0,1.085,1.008l2.382.334v3.14l-2.377.33A1.292,1.292,0,0,0,943.5,2056.12Z" fill="#e743af"/>
      <path id="Path_317" data-name="Path 317" d="M939.577,2048.037a10.93,10.93,0,1,0-4.524,14.774A10.921,10.921,0,0,0,939.577,2048.037Zm-5.592,12.764a8.651,8.651,0,1,1,3.582-11.7A8.605,8.605,0,0,1,933.985,2060.8Z" fill="#e743af"/>
    </g>
    <rect id="Rectangle_71" data-name="Rectangle 71" width="80" height="80" transform="translate(885.92 2005.328)" fill="none"/>
  </g>
</svg>
