<svg xmlns="http://www.w3.org/2000/svg" width="80" height="80" viewBox="0 0 80 80">
  <g id="Group_174" data-name="Group 174" transform="translate(-575.777 -2296.92)">
    <rect id="Rectangle_74" data-name="Rectangle 74" width="80" height="80" transform="translate(575.777 2296.92)" fill="none"/>
    <g id="Group_173" data-name="Group 173">
      <path id="Path_322" data-name="Path 322" d="M636.053,2309.42H595.5a7.97,7.97,0,0,0-7.962,7.961v27.52a7.97,7.97,0,0,0,7.962,7.96h11.66l6.868,10.6a2.09,2.09,0,0,0,3.515,0l6.868-10.593h11.639a7.97,7.97,0,0,0,7.963-7.96v-27.527A7.97,7.97,0,0,0,636.053,2309.42Zm5.083,35.474a5.089,5.089,0,0,1-5.084,5.083H623.6a1.431,1.431,0,0,0-1.208.658l-6.619,10.234-6.619-10.234a1.433,1.433,0,0,0-1.205-.652H595.5a5.089,5.089,0,0,1-5.084-5.083v-27.519a5.089,5.089,0,0,1,5.084-5.084h40.55a5.089,5.089,0,0,1,5.084,5.084Z" fill="#484ce6"/>
      <g id="Group_172" data-name="Group 172">
        <path id="Path_323" data-name="Path 323" d="M627.891,2336.709c0-2.148,0-3.146,0-5.1l0-1.144A2.969,2.969,0,0,0,625,2327.44h-.05a2.758,2.758,0,0,0-1.472.41,2.93,2.93,0,0,0-2.509-1.509,2.844,2.844,0,0,0-1.644.544,2.93,2.93,0,0,0-2.366-1.219,3,3,0,0,0-1.059.2v-5.4a2.9,2.9,0,1,0-5.8,0l-.01,10.946,0,0a3.824,3.824,0,0,0-2.694-1.413,3.759,3.759,0,0,0-2.8.981l-.591.489a.912.912,0,0,0-.226,1.117l5.746,11.047a6.29,6.29,0,0,0,5.561,3.49h6.48l.382-.006v-.012a6.586,6.586,0,0,0,5.951-6.72Zm-22.093-4.37a1.952,1.952,0,0,1,1.46-.528,2.011,2.011,0,0,1,1.417.754l1.607,1.955a.9.9,0,0,0,.61.33.889.889,0,0,0,.665-.2.906.906,0,0,0,.335-.706l.009-13.489a1.1,1.1,0,1,1,2.182.015v11.722a.907.907,0,0,0,1.814,0V2328.6a1.1,1.1,0,0,1,1.086-1.124,1.158,1.158,0,0,1,1.108,1.2v3.178a.908.908,0,0,0,1.815,0v-2.492a1.074,1.074,0,1,1,2.128,0v2.353a.907.907,0,0,0,1.814,0v-1.287a1.136,1.136,0,0,1,.309-.819,1.1,1.1,0,0,1,1.91.842c.007,2.785.006,3.718,0,6.245l0,3.686a4.75,4.75,0,0,1-4.535,4.922h-6.441a4.49,4.49,0,0,1-3.956-2.508l-5.411-10.4Z" fill="#e743af"/>
        <path id="Path_324" data-name="Path 324" d="M608.914,2320.065h0a.908.908,0,0,0,.906-.907,3.264,3.264,0,0,1,3.26-3.259h0a3.266,3.266,0,0,1,3.26,3.259.907.907,0,1,0,1.814,0,5.075,5.075,0,0,0-10.15,0A.907.907,0,0,0,608.914,2320.065Z" fill="#e743af"/>
      </g>
    </g>
  </g>
</svg>
