<svg xmlns="http://www.w3.org/2000/svg" width="80" height="80" viewBox="0 0 80 80">
  <g id="Group_168" data-name="Group 168" transform="translate(-265.776 -2005.328)">
    <rect id="Rectangle_72" data-name="Rectangle 72" width="80" height="80" transform="translate(265.776 2005.328)" fill="none"/>
    <g id="Group_167" data-name="Group 167">
      <g id="Group_18" data-name="Group 18">
        <path id="Path_30" data-name="Path 30" d="M299.325,2040.328a12.5,12.5,0,1,1,12.5-12.5h0A12.515,12.515,0,0,1,299.325,2040.328Zm0-22.5a10,10,0,1,0,10,10h0A10.011,10.011,0,0,0,299.325,2017.828Z" fill="#484ce6"/>
      </g>
      <g id="Group_19" data-name="Group 19">
        <path id="Path_31" data-name="Path 31" d="M298.075,2067.828h-20a1.25,1.25,0,0,1-1.25-1.25v-10a11.264,11.264,0,0,1,11.25-11.25h15a1.25,1.25,0,0,1,.027,2.5H288.075a8.76,8.76,0,0,0-8.751,8.751v8.75h18.75a1.25,1.25,0,0,1,.027,2.5h-.026Z" fill="#484ce6"/>
      </g>
      <g id="Group_22" data-name="Group 22">
        <g id="Group_20" data-name="Group 20">
          <path id="Path_32" data-name="Path 32" d="M319.325,2065.328a6.25,6.25,0,1,1,6.25-6.25A6.25,6.25,0,0,1,319.325,2065.328Zm0-10a3.75,3.75,0,1,0,3.75,3.75h0a3.755,3.755,0,0,0-3.75-3.75Z" fill="#e743af"/>
        </g>
        <g id="Group_21" data-name="Group 21">
          <path id="Path_33" data-name="Path 33" d="M321.317,2075.328H317.33a2.491,2.491,0,0,1-2.488-2.252l-.317-3.178a11.731,11.731,0,0,1-2.163-1.258l-2.92,1.318a2.486,2.486,0,0,1-3.192-1.031l-1.993-3.452a2.494,2.494,0,0,1,.705-3.28l2.573-1.849a9.519,9.519,0,0,1,0-2.535l-2.572-1.85a2.494,2.494,0,0,1-.705-3.28l1.992-3.452a2.492,2.492,0,0,1,3.193-1.031l2.92,1.318a11.722,11.722,0,0,1,2.162-1.258l.317-3.178a2.491,2.491,0,0,1,2.488-2.249h3.987a2.491,2.491,0,0,1,2.488,2.252l.317,3.178a11.732,11.732,0,0,1,2.163,1.258l2.92-1.318a2.5,2.5,0,0,1,3.192,1.03l1.993,3.452a2.5,2.5,0,0,1-.705,3.28l-2.573,1.85a9.519,9.519,0,0,1,0,2.535l2.573,1.85a2.5,2.5,0,0,1,.705,3.28l-1.99,3.45a2.49,2.49,0,0,1-3.193,1.03l-2.92-1.317a11.7,11.7,0,0,1-2.162,1.257l-.32,3.18a2.49,2.49,0,0,1-2.487,2.25Zm-8.779-9.387a1.247,1.247,0,0,1,.8.292,9.314,9.314,0,0,0,2.783,1.618,1.25,1.25,0,0,1,.815,1.05l.4,3.927h3.987l.392-3.927a1.25,1.25,0,0,1,.815-1.05,9.38,9.38,0,0,0,2.783-1.618,1.25,1.25,0,0,1,1.315-.18l3.61,1.63,1.992-3.452-3.195-2.295a1.258,1.258,0,0,1-.5-1.233,7.935,7.935,0,0,0,0-3.239,1.256,1.256,0,0,1,.5-1.233l3.194-2.295-1.992-3.453-3.61,1.628a1.255,1.255,0,0,1-1.318-.18,9.222,9.222,0,0,0-2.782-1.618,1.25,1.25,0,0,1-.815-1.05l-.392-3.935H317.33l-.392,3.928a1.251,1.251,0,0,1-.815,1.05,9.344,9.344,0,0,0-2.783,1.617,1.242,1.242,0,0,1-1.315.18l-3.61-1.63-1.993,3.453,3.2,2.295a1.255,1.255,0,0,1,.5,1.232,9.475,9.475,0,0,0-.167,1.62,9.277,9.277,0,0,0,.167,1.62,1.256,1.256,0,0,1-.5,1.233l-3.2,2.295,1.993,3.452,3.61-1.627a1.309,1.309,0,0,1,.512-.1Z" fill="#e743af"/>
        </g>
      </g>
    </g>
  </g>
</svg>
