<svg xmlns="http://www.w3.org/2000/svg" width="80" height="80" viewBox="0 0 80 80">
  <g id="Group_164" data-name="Group 164" transform="translate(-575.92 -2005.328)">
    <rect id="Rectangle_70" data-name="Rectangle 70" width="80" height="80" transform="translate(575.92 2005.328)" fill="none"/>
    <g id="Group_163" data-name="Group 163">
      <path id="Path_313" data-name="Path 313" d="M624.015,2055.341c-.014.023-.026.047-.041.069a1.141,1.141,0,0,0,.12,1.415l2.088,2.772-3.54,3.509-2.662-2.038a1.176,1.176,0,0,0-1.487-.173,18.314,18.314,0,0,1-6.194,2.572,1.175,1.175,0,0,0-.917.989l-.494,3.526-4.984-.022-.467-3.5a1.175,1.175,0,0,0-.917-.992,18.3,18.3,0,0,1-6.2-2.574,1.161,1.161,0,0,0-.629-.186h0a1.124,1.124,0,0,0-.779.3l-2.769,2.087-3.508-3.54,2.033-2.66a1.179,1.179,0,0,0,.175-1.488,18.259,18.259,0,0,1-2.573-6.193,1.173,1.173,0,0,0-.988-.917l-3.527-.494.021-4.981,3.5-.468a1.176,1.176,0,0,0,.992-.917,18.271,18.271,0,0,1,2.572-6.194,1.14,1.14,0,0,0-.119-1.416l-2.087-2.769,3.54-3.508,2.66,2.034a1.178,1.178,0,0,0,1.488.174,18.313,18.313,0,0,1,6.2-2.573,1.173,1.173,0,0,0,.916-.988l.494-3.527,4.984.023.467,3.5a1.173,1.173,0,0,0,.917.99,18.309,18.309,0,0,1,6.2,2.574,1.141,1.141,0,0,0,1.415-.12l2.765-2.086,3.509,3.54-2.034,2.66a1.181,1.181,0,0,0-.174,1.489c.242.371.457.755.671,1.139h2.636c-.274-.576-.566-1.145-.894-1.7l1.908-2.494a1.916,1.916,0,0,0-.166-2.5l-4.086-4.086a1.917,1.917,0,0,0-2.5-.166l-2.493,1.908a20.7,20.7,0,0,0-5.451-2.264l-.416-3.109a1.917,1.917,0,0,0-1.886-1.649h-5.779a1.916,1.916,0,0,0-1.884,1.65l-.416,3.109a20.694,20.694,0,0,0-5.449,2.261l-2.494-1.908a1.914,1.914,0,0,0-2.5.167l-4.086,4.086a1.917,1.917,0,0,0-.166,2.5l1.907,2.492a20.67,20.67,0,0,0-2.264,5.452l-3.11.416a1.916,1.916,0,0,0-1.648,1.885v5.779a1.915,1.915,0,0,0,1.651,1.885l3.107.413a20.652,20.652,0,0,0,2.263,5.452l-1.907,2.494a1.915,1.915,0,0,0,.167,2.5l4.084,4.084a1.916,1.916,0,0,0,2.5.167l2.493-1.908a20.633,20.633,0,0,0,5.451,2.263l.416,3.11a1.916,1.916,0,0,0,1.886,1.649H611.3a1.917,1.917,0,0,0,1.884-1.647l.415-3.108a20.635,20.635,0,0,0,5.451-2.264l2.494,1.908a1.917,1.917,0,0,0,2.5-.167l4.086-4.086a1.917,1.917,0,0,0,.165-2.5l-1.906-2.493c.122-.206.229-.419.344-.629Z" fill="#484ce6"/>
      <path id="Path_314" data-name="Path 314" d="M614.522,2056.766a13.02,13.02,0,1,1-6.129-24.518,13.079,13.079,0,0,1,9.537,4.137h2.434a14.917,14.917,0,1,0-.976,18.956h-2.727A13.037,13.037,0,0,1,614.522,2056.766Z" fill="#484ce6"/>
      <path id="Path_315" data-name="Path 315" d="M643.592,2055.9a2.2,2.2,0,0,1-2.187-1.95l-.016-.135h-3.01a2.427,2.427,0,0,1-1.891-.9l-2.063-2.535-.117-.145-.118.145-2.06,2.533a2.431,2.431,0,0,1-1.892.9h0l-20.144.087a2.441,2.441,0,0,1-2.438-2.438v-.4a2.441,2.441,0,0,1,2.439-2.438h0l18.623-.087h.072l.045-.056,1.944-2.39.078-.1-.078-.1-1.944-2.39-.046-.056h-.073l-18.623.087a2.441,2.441,0,0,1-2.438-2.438v-.4a2.441,2.441,0,0,1,2.439-2.438h0l20.144-.087a2.429,2.429,0,0,1,1.892.9l2.06,2.533.118.144.117-.144,2.063-2.536a2.427,2.427,0,0,1,1.891-.9h3.011l.015-.134a2.2,2.2,0,0,1,3.715-1.328h0l2.633,2.5.017.016.017.016a2.2,2.2,0,0,1,0,3.108l-.017.017-.017.016-2.633,2.5h0a2.2,2.2,0,0,1-3.711-1.3l-.017-.132h-1.564l-.045.056-1.946,2.392-.078.1.078.1,1.946,2.393.045.056h1.564l.017-.133a2.2,2.2,0,0,1,3.711-1.3h0l2.633,2.5.017.016.017.016a2.2,2.2,0,0,1,0,3.108l-.017.017-.017.016-2.633,2.5h0A2.184,2.184,0,0,1,643.592,2055.9Zm-.6-3.69v1.491a.6.6,0,0,0,.6.594.587.587,0,0,0,.414-.173l2.644-2.508h0a.593.593,0,0,0,0-.839l0,0h0l-2.643-2.507a.586.586,0,0,0-.415-.173.6.6,0,0,0-.6.594v1.457h-3.678a.528.528,0,0,1-.411-.195l-2.064-2.538-1.23-1.512-1.187-1.459-1.23-1.512-2.31-2.841a.832.832,0,0,0-.647-.307h0l-20.144.086a.835.835,0,0,0-.833.834v.4a.835.835,0,0,0,.834.833h0l19.207-.087a.529.529,0,0,1,.411.2l2.061,2.535,1.23,1.512,1.187,1.459,1.23,1.512,2.313,2.844a.83.83,0,0,0,.646.307Zm-32.9-1.985a.835.835,0,0,0-.833.834v.4a.835.835,0,0,0,.834.833h0l20.144-.087a.832.832,0,0,0,.647-.307l2.31-2.841.078-.1-.078-.095-1.186-1.459-.118-.145-.118.145-2.061,2.534a.529.529,0,0,1-.411.2h0Zm28.286-10.451a.828.828,0,0,0-.646.308l-2.313,2.843-.078.1.078.1,1.187,1.459.117.145.118-.145,2.064-2.538a.528.528,0,0,1,.411-.2h3.678v1.458a.6.6,0,0,0,.6.594.583.583,0,0,0,.414-.174l2.644-2.507h0l0,0a.591.591,0,0,0,0-.838l0,0h0l-2.643-2.507a.587.587,0,0,0-.415-.174.6.6,0,0,0-.6.594v1.491Z" fill="#e743af"/>
    </g>
  </g>
</svg>
